<svg width="16" height="16" viewBox="0 0 16 16" fill="none" xmlns="http://www.w3.org/2000/svg">
<path d="M14.5761 15.737C12.7978 15.737 11.0646 15.3405 9.37623 14.5476C7.6879 13.7547 6.19227 12.7071 4.88935 11.4047C3.58643 10.1024 2.5388 8.60675 1.74646 6.91786C0.954125 5.22897 0.55768 3.4957 0.557129 1.71804C0.557129 1.46992 0.639836 1.26315 0.805251 1.09773C0.970666 0.932317 1.17744 0.849609 1.42556 0.849609H4.77521C4.9682 0.849609 5.1405 0.91164 5.29213 1.0357C5.44377 1.15976 5.53336 1.31829 5.56093 1.51127L6.09853 4.40603C6.1261 4.59902 6.12252 4.77491 6.08778 4.93371C6.05304 5.09251 5.97392 5.23366 5.85041 5.35717L3.84475 7.3835C4.42371 8.37599 5.15098 9.30645 6.02658 10.1749C6.90217 11.0433 7.86351 11.7946 8.91059 12.4287L10.8542 10.485C10.9783 10.361 11.1404 10.2678 11.3405 10.2055C11.5407 10.1432 11.737 10.1261 11.9294 10.1542L14.7828 10.7332C14.9758 10.7745 15.1343 10.8677 15.2584 11.0127C15.3825 11.1577 15.4445 11.3264 15.4445 11.5189V14.8685C15.4445 15.1167 15.3618 15.3234 15.1964 15.4888C15.0309 15.6543 14.8242 15.737 14.5761 15.737ZM3.05903 5.81206L4.42371 4.44739L4.0722 2.50376H2.23196C2.30088 3.06893 2.39737 3.6272 2.52143 4.17859C2.64549 4.72997 2.82469 5.27446 3.05903 5.81206ZM10.4614 13.2144C10.999 13.4487 11.547 13.6348 12.1056 13.7727C12.6641 13.9105 13.2257 14.0001 13.7903 14.0415V12.2219L11.8467 11.829L10.4614 13.2144Z" fill="#E1643C"/>
</svg>
