<svg width="206" height="207" viewBox="0 0 206 207" fill="none" xmlns="http://www.w3.org/2000/svg">
<path d="M97.5328 0.574707C62.791 2.54434 31.4792 21.9439 14.1821 52.2035C12.7752 54.6588 10.4171 59.3536 9.30509 61.8764C-3.90561 91.9741 -2.09685 126.591 14.1821 155.056C27.1918 177.815 48.4817 194.827 73.4159 202.395C104.795 211.933 138.732 205.876 164.899 186.058C183.777 171.771 197.176 151.333 202.83 128.197C209.114 102.551 205.255 75.1512 192.138 52.2035C173.756 20.0552 139.55 0.250931 102.758 0.453293C100.949 0.453293 98.6046 0.520737 97.5328 0.574707ZM91.1954 22.4296C91.7045 22.9153 91.6777 22.8073 92.1199 26.4633C92.3074 28.0552 92.5218 29.809 92.5754 30.3621C92.6424 30.9018 92.763 31.5493 92.83 31.7787C92.9104 32.008 93.0309 32.777 93.0979 33.4785C93.1783 34.18 93.4463 36.4599 93.7142 38.5375C93.9688 40.6151 94.2502 42.7736 94.3172 43.3267C94.7861 47.239 95.5364 53.0804 95.6436 53.5796C95.724 53.9169 95.8312 54.6723 95.9116 55.2659C96.2599 57.9911 96.4877 59.7853 96.7959 62.3485C97.171 65.3569 98.2965 74.0854 98.3903 74.625C98.4304 74.9218 98.7118 76.8375 98.9262 78.4699C98.9798 78.7667 99.154 80.2777 99.3415 81.8426C99.5291 83.394 99.7971 85.5795 99.9445 86.6992C100.092 87.8055 100.387 90.2742 100.614 92.1629C100.856 94.0516 101.07 95.6975 101.11 95.8054C101.204 96.0483 101.177 95.8594 101.726 100.19C101.981 102.119 102.155 103.778 102.115 103.859C102.088 103.954 101.981 104.035 101.887 104.035C101.713 104.035 101.646 103.819 101.472 102.753C101.432 102.456 101.338 102.025 101.271 101.809C101.204 101.579 101.07 100.77 100.949 99.9875C100.842 99.2051 100.601 97.5997 100.413 96.4125C100.226 95.2253 99.9176 93.2152 99.7301 91.9606C99.3951 89.7481 98.6582 85.2287 98.5376 84.6756C98.4706 84.3923 97.6935 79.4547 97.2648 76.6487C97.1174 75.7178 96.9432 74.5711 96.8628 74.0854C96.7959 73.5998 96.5413 71.9944 96.3135 70.5104C96.0857 69.0264 95.858 67.7178 95.8312 67.6099C95.791 67.502 95.7374 67.2861 95.724 67.1377C95.7106 66.9893 95.4694 65.5054 95.2015 63.8325C94.6521 60.4868 94.5717 59.9877 93.7812 54.7937C93.4865 52.8241 93.1247 50.6386 92.9907 49.9371C92.6826 48.4397 92.6558 48.2643 91.3026 39.4548C90.9676 37.2963 90.5791 34.841 90.4317 33.9911C90.2977 33.1547 90.0565 31.7921 89.9091 30.9827C89.7752 30.1598 89.5206 28.6218 89.3598 27.5426C89.199 26.4633 88.9847 25.1008 88.8909 24.5072C88.7435 23.6168 88.7435 23.3605 88.8909 23.0097C89.333 21.9305 90.4183 21.6606 91.1954 22.4296ZM111.172 25.0603C111.722 25.438 111.909 26.0046 111.815 26.9895C111.708 28.0148 111.762 27.5561 111.065 35.5021C110.77 38.8748 110.462 42.3418 110.382 43.1918C110.315 44.0417 110.194 45.4447 110.127 46.2946C109.792 50.5712 109.712 51.4076 109.591 52.0282C109.457 52.7567 109.31 54.3081 108.988 58.099C108.787 60.4733 108.117 68.1091 107.314 77.2962C107.099 79.8325 106.885 82.1394 106.845 82.4227C106.724 83.2456 105.438 97.4783 104.754 105.451C104.674 106.409 104.553 107.259 104.5 107.326C104.433 107.394 104.285 107.407 104.165 107.353C103.91 107.259 103.91 107.529 104.285 102.821C104.406 101.296 104.768 95.2928 105.103 89.4648C105.438 83.6368 105.799 77.4176 105.907 75.6369C106.014 73.8561 106.175 71.2119 106.242 69.7684C106.322 68.3249 106.443 66.1664 106.51 64.9792C106.577 63.7921 106.67 62.2406 106.711 61.5391C106.751 60.8376 106.845 59.7448 106.912 59.1108C106.992 58.4767 107.139 56.4396 107.247 54.5914C108.037 40.8714 108.627 30.8748 108.868 27.0434C108.948 25.7213 109.176 25.2222 109.779 24.9793C110.234 24.7905 110.851 24.8309 111.172 25.0603ZM66.5693 41.5729C67.2928 43.3132 68.4719 46.1732 69.182 47.9135C69.8921 49.6538 70.7496 51.7179 71.0712 52.5003C74.059 59.6504 74.2198 60.0956 74.2198 61.4042C74.2198 62.3485 74.1796 62.4969 73.7374 63.2389C72.679 65.0062 72.21 66.2878 72.21 67.475C72.21 68.5812 72.3306 68.905 78.0651 84.5407C81.2673 93.2557 81.6424 94.0921 88.9177 108.487C89.7216 110.079 90.5523 111.778 90.7666 112.264C90.9676 112.75 91.2758 113.438 91.4365 113.815C92.1333 115.367 92.5352 117.053 92.3878 117.822C92.1467 119.171 90.0967 120.237 88.1272 120.048C87.4439 119.994 87.2429 119.9 86.8677 119.536C85.7423 118.429 84.6972 115.461 82.6607 107.475C80.7313 99.9201 80.0212 97.3973 78.5474 92.9724C78.0249 91.4075 77.1674 89.141 75.8945 85.8898C69.8653 70.5509 69.8251 70.4564 69.3562 69.647C68.5121 68.217 67.0383 67.2052 65.0955 66.733C63.9031 66.4362 63.059 65.7077 62.4695 64.4801C62.2417 64.0079 61.143 60.986 60.0176 57.7617C58.9055 54.5374 57.8069 51.3941 57.5925 50.7735C57.3781 50.1664 57.0298 49.1681 56.8154 48.5476C56.1053 46.5105 55.4354 44.6218 55.0468 43.529C54.6717 42.4902 54.6851 42.126 55.087 42.2744C55.1808 42.3149 55.4086 42.7061 55.5827 43.1378C56.8958 46.3891 62.3757 59.2322 62.5365 59.4076C62.9652 59.9067 63.9031 59.529 63.9031 58.8679C63.9031 58.6656 63.5949 57.5863 63.2198 56.4801C62.8446 55.3604 61.7594 52.1766 60.8215 49.3975C59.8836 46.6184 58.8653 43.6235 58.5572 42.7331C58.2624 41.8562 58.048 41.0872 58.0882 41.0198C58.2222 40.7904 58.5438 40.8983 58.6778 41.1951C58.7447 41.3705 60.1114 44.5948 61.7058 48.3857C63.3002 52.1631 64.841 55.8325 65.1223 56.534C65.4037 57.2356 65.7386 57.9101 65.8592 58.045C66.3148 58.5576 67.2526 58.2069 67.2526 57.5459C67.2526 57.3705 67.0785 56.6959 66.8641 56.0484C66.5023 54.9691 63.3671 45.701 61.9469 41.5189C61.3842 39.8326 61.3574 39.5628 61.7728 39.5493C61.8263 39.5493 62.2551 40.4801 62.7374 41.5999C69.048 56.561 69.1686 56.8443 69.4902 56.9927C69.9457 57.1951 70.5218 56.8713 70.5754 56.3722C70.629 55.873 70.8702 56.6015 66.1942 42.8275C65.3903 40.4397 64.7606 38.4565 64.8142 38.4161C65.0821 38.1463 65.3903 38.7129 66.5693 41.5729ZM143.636 39.3604C148.754 40.8579 150.737 48.9253 147.897 56.7229C146.021 61.8359 143.315 65.1276 140.139 66.1394C139.657 66.2878 138.706 66.4497 138.022 66.4902L136.763 66.5711L136.227 67.2457C135.932 67.6234 135.584 68.163 135.436 68.4328C135.182 68.9455 129.702 83.7178 128.456 87.2388C127.719 89.3569 126.969 91.5828 126.768 92.2979C126.687 92.5542 126.419 93.4985 126.165 94.3889C125.227 97.5997 124.691 99.7447 123.378 105.384C121.757 112.439 121.047 115.003 120.216 116.851C119.345 118.78 118.796 119.225 117.376 119.104C115.031 118.928 113.222 117.417 113.37 115.772C113.41 115.434 113.624 114.76 113.865 114.288C114.106 113.815 114.455 113.033 114.629 112.547C115.018 111.522 117.054 107.111 118.608 103.967C120.538 100.055 122.052 96.7498 123.592 93.1073C125.147 89.4109 125.254 89.1006 128.751 78.8072C132.743 67.0433 132.636 67.3941 132.636 66.1664V65.0737L131.444 63.873C129.528 61.9438 128.965 60.4329 128.965 57.2221C128.965 54.7803 129.354 52.7971 130.359 49.9641C132.529 43.8798 137.513 39.1985 141.894 39.1581C142.457 39.1446 143.234 39.239 143.636 39.3604ZM82.0979 125.903C82.7411 126.294 83.3306 126.834 83.478 127.171C83.545 127.32 83.6521 127.536 83.7191 127.643C83.9737 128.102 84.1211 128.777 84.0005 128.925C83.9335 129.019 83.9067 129.127 83.9469 129.168C84.0541 129.276 84.1345 130.746 84.0407 131.111C84.0005 131.286 83.9201 131.394 83.8665 131.353C83.7995 131.313 83.7861 131.488 83.8263 131.758C83.8799 132.109 83.8531 132.244 83.6789 132.311C83.5584 132.352 83.4646 132.514 83.4646 132.662C83.4646 132.797 83.5316 132.878 83.5985 132.837C83.6789 132.797 83.7325 132.824 83.7325 132.891C83.7325 132.972 83.6387 133.04 83.5316 133.04C83.3842 133.04 83.344 133.134 83.411 133.377C83.4646 133.62 83.4244 133.741 83.2636 133.795C83.0894 133.863 83.076 133.917 83.2234 133.998C83.3574 134.092 83.3306 134.119 83.1564 134.119C83.009 134.119 82.875 133.998 82.8348 133.836C82.7679 133.593 82.7009 133.66 82.4463 134.213C82.2721 134.564 82.1247 134.928 82.1247 135.009C82.1247 135.252 80.7581 137.856 79.7398 139.556C79.2173 140.433 78.8422 141.107 78.9092 141.067C79.1369 140.932 80.5437 138.53 81.4146 136.817C81.897 135.9 82.3391 135.063 82.4061 134.982C82.4731 134.901 82.4865 134.793 82.4463 134.753C82.4061 134.713 82.4597 134.537 82.5803 134.362L82.7947 134.065V134.389C82.8081 134.713 82.8081 134.713 82.9956 134.47C83.2368 134.146 83.2502 134.213 83.0492 134.78C82.9554 135.063 82.8616 135.171 82.7947 135.063C82.7277 134.955 82.6741 134.996 82.6205 135.185C82.5803 135.347 82.6071 135.468 82.6741 135.468C82.7277 135.468 82.7545 135.562 82.7009 135.684C82.6473 135.819 82.5937 135.846 82.5267 135.751C82.4329 135.589 82.2453 135.886 81.9908 136.574C81.9238 136.79 81.8032 136.952 81.7228 136.952C81.6558 136.952 81.5888 137.1 81.5888 137.276C81.5888 137.451 81.4816 137.734 81.3342 137.91C80.9457 138.422 80.517 139.353 80.5839 139.542C80.6241 139.637 80.5303 139.893 80.383 140.122C80.2356 140.338 80.115 140.46 80.115 140.392C80.115 140.311 80.2088 140.109 80.3294 139.947C80.45 139.772 80.5169 139.596 80.4767 139.569C80.3964 139.488 79.7131 140.46 79.4585 140.999L79.2977 141.336L79.5657 141.013C79.9006 140.635 79.9274 140.743 79.6327 141.202C79.5121 141.39 79.3647 141.512 79.3111 141.471C79.2039 141.404 78.5876 142.078 78.6814 142.173C78.7216 142.213 78.8556 142.078 78.9895 141.89C79.1101 141.687 79.2441 141.552 79.2709 141.593C79.3111 141.62 79.1503 141.903 78.9226 142.227C78.6948 142.537 78.5072 142.928 78.5072 143.104C78.5072 143.266 78.467 143.508 78.4134 143.643C78.333 143.859 78.3196 143.859 78.2258 143.616C78.1455 143.414 78.1187 143.455 78.1187 143.805C78.1053 144.075 78.1589 144.223 78.2392 144.17C78.4536 144.035 78.4 144.601 78.1722 144.817C77.9981 144.992 77.9981 145.073 78.1589 145.37L78.333 145.734L78.9761 144.682C79.7264 143.468 81.4816 140.986 81.763 140.743C82.0176 140.541 82.2051 140.783 81.9908 141.026C81.2271 141.944 79.3915 144.817 78.8422 145.923C78.7082 146.22 78.5206 146.557 78.4268 146.665C78.3464 146.773 78.2258 147.043 78.1856 147.272C78.0919 147.664 78.0919 147.664 78.4268 147.164C78.6144 146.881 78.7752 146.625 78.7752 146.571C78.7752 146.53 79.1905 145.788 79.6997 144.925C80.7715 143.09 82.4061 140.918 82.7947 140.797C82.942 140.756 83.0626 140.635 83.0626 140.527C83.0626 140.325 84.3757 139.164 84.5498 139.205C84.6168 139.232 84.6704 139.097 84.6704 138.922C84.6704 138.719 84.5766 138.571 84.4426 138.544C84.2417 138.503 84.2417 138.476 84.4694 138.247C84.7106 138.004 84.724 138.004 85.0322 138.355C85.2063 138.557 85.3403 138.652 85.3403 138.584C85.3403 138.503 85.4341 138.436 85.5547 138.436C85.7021 138.436 85.7423 138.517 85.6887 138.733C85.6485 138.908 85.6485 138.962 85.6887 138.868C85.7289 138.787 85.8227 138.746 85.9031 138.787C85.9834 138.841 86.0906 138.8 86.1442 138.706C86.2246 138.584 86.2782 138.611 86.3452 138.827C86.3854 138.976 86.5462 139.111 86.6802 139.111C86.9481 139.111 87.685 140.244 87.551 140.46C87.4975 140.541 87.5376 140.581 87.6314 140.568C87.7118 140.541 87.8458 140.702 87.9128 140.932C88.1004 141.498 88.1138 145.896 87.9396 145.95C87.8592 145.977 87.819 146.409 87.8324 147.003C87.8458 147.569 87.819 148.041 87.7654 148.082C87.7118 148.109 87.685 148.446 87.7252 148.824C87.752 149.202 87.7118 149.687 87.6448 149.89C87.551 150.159 87.551 150.321 87.6582 150.429C87.7654 150.537 87.7654 150.618 87.685 150.686C87.5108 150.807 87.5108 150.982 87.7118 151.32C87.8056 151.468 87.886 151.508 87.886 151.414C87.886 151.32 87.9396 151.266 88.0066 151.306C88.154 151.401 89.0249 150.308 90.0699 148.689C90.5255 147.987 90.981 147.394 91.0614 147.367C91.249 147.313 90.4585 148.675 89.5742 149.957C89.266 150.389 88.9713 150.847 88.8909 150.969C88.8239 151.09 88.5827 151.387 88.3683 151.643C88.1004 151.967 88.0334 152.129 88.154 152.169C88.2478 152.21 88.3549 152.169 88.4085 152.102C88.4487 152.035 88.8507 151.468 89.3062 150.834C90.2441 149.552 91.6777 147.191 91.9725 146.476C92.3208 145.653 92.1869 145.627 91.7447 146.422C91.5169 146.854 91.2758 147.205 91.2088 147.205C90.9944 147.205 93.6473 142.132 94.2904 141.323C95.6168 139.677 97.0772 138.854 98.4305 139.016C100.132 139.205 102.691 141.215 103.281 142.834C103.468 143.32 103.562 143.792 103.522 144.062C103.401 144.804 102.731 145.977 101.941 146.841C100.454 148.487 99.154 148.837 97.3586 148.082C96.8628 147.879 96.4207 147.731 96.3939 147.772C96.3671 147.799 96.2063 148.392 96.059 149.094C95.724 150.551 95.7374 152.412 96.0723 152.817C96.8628 153.788 99.4755 153.586 101.472 152.412C102.249 151.954 103.629 150.672 104.366 149.701C104.674 149.296 104.982 148.986 105.036 149.026C105.103 149.067 105.197 149.026 105.25 148.945C105.304 148.837 105.29 148.824 105.197 148.878C104.955 149.026 105.009 148.743 105.264 148.54C105.465 148.379 105.478 148.379 105.371 148.554C105.304 148.675 105.317 148.716 105.384 148.648C105.451 148.581 105.505 148.433 105.505 148.311C105.505 148.19 105.572 148.095 105.666 148.109C105.759 148.136 105.799 148.068 105.773 147.974C105.733 147.893 105.84 147.664 105.987 147.475C106.134 147.286 106.215 147.218 106.161 147.326C106.094 147.448 106.121 147.488 106.228 147.421C106.309 147.367 106.349 147.272 106.309 147.205C106.201 147.03 106.496 146.503 106.644 146.598C106.711 146.638 106.804 146.598 106.858 146.517C106.912 146.409 106.898 146.395 106.804 146.449C106.577 146.584 106.603 146.476 106.925 145.937C107.086 145.667 107.26 145.478 107.314 145.519C107.381 145.559 107.474 145.519 107.528 145.438C107.581 145.33 107.568 145.316 107.474 145.37C107.381 145.424 107.314 145.438 107.314 145.397C107.314 145.235 108.131 144.035 108.251 144.035C108.305 144.035 108.412 143.981 108.479 143.913C108.546 143.846 108.519 143.832 108.426 143.886C108.211 144.008 108.198 143.805 108.399 143.603C108.493 143.508 108.667 142.699 108.814 141.782C109.672 136.17 111.44 131.866 113.785 129.708C114.2 129.343 114.75 128.925 115.044 128.79C115.661 128.493 116.759 128.358 116.88 128.574C116.933 128.655 117.067 128.723 117.175 128.723C117.751 128.723 119.117 130.126 118.903 130.476C118.863 130.557 118.876 130.611 118.957 130.611C119.131 130.611 119.037 132.082 118.849 132.271C118.729 132.392 118.675 132.352 118.622 132.122C118.501 131.677 118.34 131.88 118.246 132.595C118.126 133.404 117.791 134.497 117.617 134.605C117.483 134.686 117.603 133.971 117.751 133.849C117.791 133.809 117.858 133.566 117.871 133.31C117.898 133.053 117.979 132.77 118.046 132.689C118.113 132.608 118.126 132.5 118.072 132.446C118.019 132.406 117.898 132.527 117.818 132.729C117.67 133.053 117.657 132.945 117.724 131.92C117.791 130.854 117.778 130.746 117.563 130.746C117.376 130.746 117.362 130.706 117.496 130.544C117.603 130.423 117.603 130.342 117.523 130.342C117.295 130.342 116.063 132.095 115.567 133.107C115.326 133.62 114.924 134.591 114.683 135.266C114.441 135.927 114.2 136.601 114.147 136.75C114.08 136.898 113.999 137.262 113.959 137.559C113.919 137.883 113.932 138.004 113.986 137.842C114.08 137.627 114.12 137.613 114.173 137.788C114.227 137.896 114.2 138.072 114.133 138.18C114.066 138.288 114.013 138.517 114.013 138.706C114.013 138.895 113.946 139.137 113.865 139.245C113.758 139.394 113.745 139.272 113.798 138.773L113.879 138.099L113.664 138.638C113.41 139.326 113.209 140.325 113.343 140.325C113.396 140.325 113.49 140.163 113.53 139.974C113.664 139.475 113.785 139.677 113.678 140.176C113.624 140.446 113.504 140.594 113.37 140.594C113.182 140.594 113.182 140.621 113.329 140.716C113.437 140.783 113.597 140.81 113.691 140.77C113.812 140.729 113.745 140.959 113.53 141.35L113.182 142.011L113.53 141.606C114.12 140.918 115.862 138.045 116.666 136.439C117.081 135.589 117.443 134.969 117.469 135.05C117.577 135.374 115.795 138.611 113.664 141.944L113.45 142.281L113.731 141.944C114.321 141.269 116.21 138.207 117.027 136.628C117.161 136.345 117.309 136.183 117.335 136.264C117.362 136.345 117.255 136.628 117.094 136.885C116.933 137.154 116.84 137.451 116.88 137.573C116.933 137.707 116.907 137.748 116.799 137.68C116.706 137.613 116.679 137.654 116.732 137.802C116.786 137.937 116.759 137.991 116.652 137.95C116.478 137.896 116.076 138.746 116.103 139.07C116.116 139.164 116.076 139.218 116.022 139.178C115.969 139.137 115.875 139.205 115.835 139.326C115.781 139.448 115.808 139.502 115.902 139.434C116.009 139.38 115.996 139.434 115.902 139.637C115.808 139.785 115.714 139.92 115.674 139.92C115.634 139.92 115.647 139.839 115.701 139.745C115.741 139.664 115.634 139.758 115.446 139.987C115.018 140.5 114.602 141.202 114.803 141.08C115.071 140.905 114.964 141.134 114.401 141.917C113.825 142.713 113.477 143.117 113.678 142.766C113.745 142.632 113.731 142.605 113.624 142.672C113.544 142.726 113.504 142.82 113.544 142.888C113.584 142.955 113.504 143.185 113.356 143.387C112.659 144.345 111.963 153.181 112.391 155.502L112.485 156.041L112.713 155.367C113.276 153.64 113.37 150.429 112.874 148.932C112.74 148.5 112.659 148.122 112.7 148.082C112.74 148.041 113.396 147.987 114.16 147.974C115.326 147.933 115.701 147.866 116.465 147.556C117 147.326 117.63 146.935 117.952 146.611C118.273 146.301 118.769 145.842 119.05 145.586C119.332 145.316 119.801 144.831 120.069 144.507C120.337 144.17 120.564 143.967 120.564 144.062C120.578 144.156 120.471 144.331 120.337 144.466C120.203 144.601 119.921 144.938 119.72 145.235C119.506 145.519 119.01 146.085 118.608 146.476C118.22 146.881 117.952 147.205 118.019 147.205C118.247 147.205 118.943 146.53 119.827 145.478C120.658 144.466 120.685 144.399 120.779 143.495C121.033 140.932 121.743 138.679 122.346 138.449C122.655 138.328 123.137 138.476 123.11 138.679C123.097 138.733 123.097 138.922 123.11 139.097L123.123 139.421L123.458 139.111L123.793 138.8L124.517 139.556C125.763 140.851 125.991 142.186 125.683 146.261C125.616 147.11 125.508 148.837 125.455 150.092C125.348 152.696 125.254 152.547 126.594 151.751C127.558 151.171 128.443 150.267 129.313 148.918C130.184 147.596 131.35 145.519 131.497 145.046C131.551 144.858 131.765 144.358 131.98 143.927C132.194 143.495 132.382 142.982 132.382 142.78C132.422 142.078 133.078 139.718 133.413 139.07C133.735 138.463 133.789 138.422 134.231 138.463C134.7 138.503 134.713 138.517 134.673 139.043L134.633 139.583L135.035 139.191L135.436 138.8L135.584 139.124C135.664 139.313 135.865 139.515 136.026 139.583C136.187 139.664 136.374 139.853 136.455 140.014C136.522 140.19 136.656 140.325 136.75 140.325C137.031 140.325 137.018 142.645 136.723 145.721C136.428 148.635 136.401 149.242 136.535 149.148C136.602 149.107 136.656 148.986 136.656 148.878C136.656 148.77 136.709 148.689 136.776 148.689C136.843 148.689 137.084 148.406 137.312 148.041C138.036 146.922 138.813 145.802 139.081 145.505C139.215 145.357 139.335 145.195 139.335 145.141C139.335 145.033 141.211 142.51 141.814 141.809C143.06 140.365 143.489 140.082 143.918 140.487C144.011 140.581 144.266 140.756 144.48 140.864C145.365 141.323 146.557 143.036 146.57 143.859C146.57 144.062 146.637 144.264 146.704 144.304C146.785 144.345 146.838 144.547 146.825 144.75L146.812 145.114L146.704 144.777C146.637 144.574 146.597 145.06 146.597 146.058C146.611 146.949 146.637 147.529 146.691 147.34C146.731 147.151 146.798 148.028 146.838 149.282L146.905 151.562L147.709 150.429C148.151 149.809 149.009 148.675 149.625 147.906C150.228 147.151 150.724 146.49 150.724 146.463C150.724 146.301 152.667 143.428 152.76 143.428C152.894 143.428 152.921 143.401 152.064 144.709C151.729 145.222 151.354 145.869 151.22 146.126C151.086 146.382 150.563 147.178 150.054 147.879C149.531 148.581 149.063 149.256 149.009 149.363C148.821 149.768 147.482 151.724 147.2 152.048C146.999 152.264 146.972 152.345 147.106 152.304C147.482 152.183 151.702 146.139 152.506 144.574C152.707 144.17 153.27 143.562 153.27 143.751C153.27 143.805 153.203 143.981 153.122 144.143C152.961 144.439 152.961 144.439 153.256 144.183C153.511 143.94 153.564 143.954 153.524 144.183C153.524 144.237 153.578 144.318 153.658 144.358C153.752 144.426 153.484 145.006 152.935 145.991C152.466 146.827 152.104 147.569 152.158 147.65C152.198 147.731 152.171 147.745 152.104 147.704C152.024 147.65 151.916 147.704 151.876 147.825C151.836 147.933 151.742 148.001 151.689 147.96C151.622 147.92 151.447 148.122 151.3 148.392C151.139 148.662 150.885 149.134 150.724 149.431C150.563 149.728 150.349 150.065 150.242 150.186C150.134 150.294 150.054 150.456 150.054 150.537C150.054 150.618 150.014 150.712 149.96 150.739C149.893 150.753 149.732 150.996 149.598 151.252C149.464 151.508 149.397 151.657 149.478 151.589C149.813 151.225 150.349 150.402 150.925 149.323C151.273 148.675 151.581 148.163 151.622 148.203C151.702 148.271 151.126 149.404 150.456 150.524C149.893 151.441 149.826 151.589 150.067 151.441C150.175 151.387 150.175 151.441 150.067 151.643C149.88 151.981 149.773 152.021 149.866 151.684C149.933 151.495 149.907 151.495 149.732 151.711C149.478 152.021 149.451 152.25 149.679 152.116C149.88 151.981 149.344 152.871 148.661 153.788C148.151 154.476 147.602 154.895 147.2 154.895C146.905 154.895 145.512 154.234 144.869 153.788C144.253 153.37 143.208 151.886 142.873 150.969C142.524 149.997 142.296 148.244 142.27 146.449C142.256 144.777 142.256 144.777 142.002 145.1C141.868 145.276 141.747 145.478 141.747 145.532C141.747 145.586 141.841 145.519 141.961 145.37C142.149 145.127 142.162 145.127 142.015 145.411C141.935 145.586 141.801 145.707 141.72 145.68C141.64 145.667 141.546 145.734 141.506 145.842C141.466 145.964 141.506 145.991 141.6 145.937C141.774 145.829 141.037 147.218 140.635 147.758C140.501 147.933 140.581 147.718 140.823 147.272C141.064 146.827 141.318 146.382 141.385 146.288C141.452 146.193 141.493 146.085 141.452 146.058C141.372 145.964 139.979 148.473 138.947 150.524C138.505 151.428 137.862 152.642 137.527 153.208C137.192 153.775 136.924 154.274 136.924 154.301C136.924 154.625 137.929 153.154 138.25 152.358C138.344 152.129 138.491 151.927 138.558 151.927C138.706 151.927 137.607 153.991 137.111 154.598C136.817 154.976 136.696 155.043 136.401 154.962C136.214 154.922 135.892 154.733 135.704 154.544C135.49 154.341 135.276 154.247 135.142 154.301C135.008 154.341 134.914 154.328 134.914 154.247C134.914 154.18 134.74 154.085 134.539 154.045C134.07 153.95 133.628 153.505 133.078 152.574C132.569 151.738 132.275 150.659 132.047 148.864L131.886 147.569L131.645 148.122C131.511 148.433 131.337 148.648 131.283 148.608C131.216 148.567 131.203 148.648 131.256 148.77C131.31 148.932 131.296 148.972 131.189 148.905C131.082 148.837 131.055 148.891 131.122 149.04C131.189 149.215 131.162 149.242 131.028 149.161C130.908 149.094 130.881 149.107 130.948 149.215C131.069 149.39 130.466 150.497 129.608 151.657C129.287 152.102 129.046 152.547 129.099 152.628C129.153 152.709 129.139 152.736 129.059 152.696C128.979 152.642 128.778 152.777 128.603 152.979L128.282 153.343L128.617 153.073L128.952 152.804L128.697 153.114C128.55 153.276 128.416 153.384 128.376 153.343C128.242 153.208 127.96 153.573 128.041 153.788C128.081 153.95 128.067 153.964 127.987 153.842C127.893 153.707 127.799 153.748 127.599 153.964C127.465 154.139 127.424 154.22 127.518 154.166C127.598 154.112 127.679 154.099 127.679 154.139C127.679 154.409 125.723 155.07 125.415 154.908C125.294 154.841 124.812 154.652 124.329 154.49C123.19 154.085 122.976 153.937 122.333 153.087C121.368 151.819 120.591 149.053 120.564 146.665C120.551 145.68 120.538 145.667 120.35 146.058C120.095 146.571 119.091 147.623 118.943 147.529C118.89 147.488 118.876 147.556 118.916 147.664C118.97 147.812 118.916 147.879 118.756 147.879C118.528 147.879 118.541 147.893 118.782 148.082C119.064 148.298 119.064 148.298 118.555 148.338C118.354 148.365 117.885 148.541 117.51 148.743C116.933 149.04 115.62 149.336 114.736 149.363C114.629 149.363 114.642 149.579 114.776 150.065C115.285 151.967 115.245 154.76 114.696 156.945C114.415 158.011 114.428 158.375 114.696 157.458C114.79 157.134 114.897 156.945 114.91 157.013C115.018 157.309 114.374 158.672 113.986 159.009C113.597 159.347 113.53 159.36 112.418 159.266C111.105 159.171 110.717 158.982 109.859 158.051C108.385 156.433 107.662 152.682 107.983 148.257C108.064 147.124 108.158 146.072 108.198 145.923L108.265 145.653L108.05 145.923C107.555 146.557 106.536 148.271 106.603 148.338C106.657 148.379 106.617 148.419 106.536 148.419C106.389 148.419 105.947 149.121 105.987 149.309C105.987 149.363 105.947 149.444 105.88 149.485C105.813 149.525 105.478 150.011 105.116 150.551C103.575 152.911 100.963 154.814 99.02 154.989C98.0419 155.083 96.5413 154.76 95.4024 154.22C93.8482 153.478 92.3074 151.428 92.0931 149.795C92.0529 149.417 91.9591 149.094 91.9055 149.094C91.7313 149.094 89.7618 152.858 89.8421 153.046C89.9359 153.316 88.9311 154.692 88.5827 154.733C88.4219 154.76 88.2879 154.841 88.2879 154.908C88.2879 155.137 87.6984 155.03 87.3903 154.733C87.2295 154.571 86.8543 154.422 86.5864 154.395C85.7959 154.315 85.2599 153.977 84.6838 153.222C83.5852 151.792 83.1028 149.944 83.2368 147.61C83.3306 146.112 83.7191 143.589 84.0675 142.348C84.2953 141.471 84.3087 141.404 84.1479 141.404C83.9201 141.404 82.6473 143.063 82.7143 143.252C82.7545 143.36 82.7411 143.414 82.6741 143.36C82.4999 143.252 81.5754 144.844 81.6692 145.087C81.7094 145.195 81.6826 145.33 81.6022 145.384C81.5084 145.438 81.4816 145.37 81.5352 145.222C81.7094 144.682 81.1601 145.532 80.6509 146.598C79.6461 148.729 77.7703 153.33 77.9713 153.208C78.0383 153.168 78.3062 152.588 78.5876 151.927C78.8556 151.252 79.1101 150.726 79.1369 150.753C79.2173 150.847 78.4 153.033 78.1053 153.505C77.9579 153.748 77.7703 153.95 77.7033 153.95C77.6229 153.95 77.5961 153.869 77.6497 153.775C77.7301 153.653 77.6899 153.667 77.5425 153.788C77.3549 153.937 77.2612 153.923 76.9262 153.68C76.6984 153.519 76.4573 153.411 76.3903 153.465C76.3099 153.505 76.2161 153.492 76.1625 153.411C76.1223 153.343 75.9347 153.276 75.7606 153.276C75.3452 153.276 74.3135 152.116 74.0992 151.401C73.858 150.551 73.6838 148.81 73.6838 147.003V145.384L72.9871 146.126C70.1199 149.188 68.9542 150.335 66.8909 152.089C65.6315 153.168 62.9116 154.409 62.0541 154.301C61.7594 154.274 61.6656 154.301 61.7192 154.436C61.7594 154.544 61.7326 154.625 61.6522 154.625C61.5852 154.625 61.3306 154.665 61.1028 154.706C60.7411 154.787 60.6875 154.76 60.7679 154.544C60.8215 154.355 60.8081 154.341 60.7277 154.463C60.6473 154.557 60.5401 154.625 60.4731 154.611C60.4061 154.598 60.3123 154.611 60.2588 154.625C60.1918 154.638 60.1114 154.665 60.0578 154.679C59.9908 154.692 59.8032 154.787 59.6424 154.881C59.2137 155.11 57.7399 154.989 56.6412 154.625C55.3952 154.207 54.6985 153.748 53.6802 152.696C51.7776 150.739 50.9335 147.758 51.3087 144.304C51.4695 142.766 52.1528 139.826 52.6351 138.584C52.7959 138.193 52.9031 137.842 52.8897 137.829C52.8629 137.802 52.4476 137.613 51.9652 137.384C48.7362 135.927 46.2575 133.026 45.6144 129.964C45.3733 128.763 45.3599 127.886 45.601 127.198C45.8824 126.402 46.1906 126.146 46.7399 126.186L47.2222 126.227V127.913C47.2356 129.397 47.2758 129.708 47.584 130.503C48.2807 132.365 49.5937 134.213 50.9067 135.212C51.5097 135.67 53.1309 136.547 53.372 136.547C53.3988 136.547 53.7338 135.981 54.0955 135.293C56.0651 131.637 59.2137 128.547 61.7728 127.765C64.0505 127.063 67.2526 128.116 68.4987 129.964C68.847 130.49 68.8738 130.638 68.8336 131.421C68.7667 132.621 68.2843 133.579 67.1991 134.659C65.2429 136.588 62.5231 137.923 59.5486 138.396C58.8117 138.503 58.1284 138.625 58.0346 138.652C57.6327 138.773 56.1723 142.726 55.7301 144.912C55.3282 146.881 55.3684 148.891 55.8105 150.335C55.9981 150.955 56.2527 151.576 56.3866 151.711C56.5608 151.913 56.5608 151.954 56.4 151.873C56.2929 151.805 56.4804 152.035 56.8288 152.372C57.8069 153.33 58.3964 153.586 59.8434 153.653C61.2502 153.721 62.0005 153.505 64.305 152.358C66.1004 151.468 67.6948 150.119 70.9908 146.706L73.8312 143.765L74.0322 141.876C74.8897 133.539 76.8726 127.805 79.5121 126.052C80.2892 125.539 81.3744 125.471 82.0979 125.903ZM124.289 128.885C124.303 129.208 124.316 129.492 124.316 129.532C124.329 129.573 124.463 129.424 124.637 129.222C124.986 128.777 125.401 128.844 125.401 129.33C125.401 129.573 125.455 129.627 125.656 129.573C125.83 129.532 126.004 129.64 126.218 129.964C126.393 130.207 126.58 130.449 126.647 130.49C126.714 130.53 126.741 131.097 126.714 131.731C126.674 132.81 126.781 133.134 126.915 132.365C126.969 132.068 126.969 132.068 126.982 132.433C127.009 132.999 126.54 134.659 125.991 135.967C125.817 136.399 125.535 136.574 125.535 136.264C125.535 136.156 125.482 136.156 125.348 136.264C125.2 136.399 125.133 136.372 125.066 136.156C125.013 135.954 124.865 135.873 124.584 135.873C124.37 135.873 124.195 135.819 124.195 135.751C124.195 135.684 124.035 135.603 123.834 135.576C123.592 135.549 123.351 135.347 123.043 134.901C122.427 134.025 122.266 133.269 122.36 131.718C122.467 129.708 123.11 128.318 123.927 128.318C124.249 128.318 124.276 128.372 124.289 128.885ZM117.268 131.043C117.201 131.138 117.014 131.394 116.853 131.61C116.692 131.826 116.558 131.933 116.558 131.853C116.558 131.704 117.201 130.881 117.322 130.881C117.362 130.881 117.335 130.962 117.268 131.043ZM116.089 132.918C115.915 133.242 115.754 133.458 115.754 133.39C115.754 133.161 116.344 132.041 116.384 132.176C116.411 132.257 116.277 132.595 116.089 132.918ZM118.769 132.648C118.916 132.864 118.715 133.714 118.528 133.674C118.434 133.66 118.38 133.795 118.394 134.038C118.421 134.321 118.38 134.389 118.273 134.281C118.166 134.173 118.18 133.917 118.313 133.323C118.488 132.514 118.595 132.352 118.769 132.648ZM117.684 133.377C117.63 133.485 117.577 133.579 117.55 133.579C117.523 133.579 117.496 133.485 117.496 133.377C117.496 133.269 117.55 133.175 117.63 133.175C117.697 133.175 117.724 133.269 117.684 133.377ZM115.433 134.416C114.857 135.954 114.803 136.048 114.723 135.967C114.642 135.873 114.776 135.468 115.299 134.281C115.741 133.31 115.821 133.404 115.433 134.416ZM117.389 134.186C117.335 134.537 117.094 134.793 117.094 134.524C117.094 134.362 117.335 133.849 117.416 133.849C117.443 133.849 117.429 133.998 117.389 134.186ZM118.072 134.659C118.032 134.807 117.938 134.969 117.858 135.023C117.764 135.077 117.751 135.023 117.804 134.874C117.858 134.74 117.898 134.578 117.898 134.51C117.898 134.443 117.952 134.389 118.019 134.389C118.086 134.389 118.113 134.51 118.072 134.659ZM116.478 136.304C115.728 137.802 114.2 140.419 113.986 140.541C113.745 140.702 113.932 140.311 114.723 139.07C115.138 138.436 115.808 137.208 116.237 136.345C116.666 135.482 117.041 134.834 117.067 134.901C117.094 134.982 116.826 135.603 116.478 136.304ZM117.804 135.468C117.845 135.616 117.818 135.711 117.751 135.657C117.684 135.616 117.63 135.684 117.63 135.792C117.63 135.913 117.577 136.008 117.496 136.008C117.335 136.008 117.335 135.981 117.496 135.549C117.644 135.131 117.711 135.117 117.804 135.468ZM114.562 136.777C114.428 137.006 114.428 136.992 114.415 136.736C114.415 136.426 114.589 136.183 114.656 136.399C114.683 136.48 114.642 136.642 114.562 136.777ZM81.8032 137.613C81.5352 138.139 81.294 138.571 81.2539 138.571C81.2137 138.571 81.4146 138.112 81.6826 137.559C81.9506 137.006 82.2051 136.574 82.2319 136.601C82.2587 136.628 82.0577 137.087 81.8032 137.613ZM83.8263 139.232C83.5852 139.421 83.1832 139.812 82.9018 140.109C82.6339 140.392 82.3391 140.594 82.2319 140.568C82.1247 140.527 82.2721 140.311 82.6607 139.933C82.9956 139.623 83.4378 139.191 83.6655 138.976C83.9067 138.733 84.0943 138.652 84.1479 138.733C84.2015 138.814 84.0541 139.043 83.8263 139.232ZM80.9323 139.151C80.7983 139.272 80.7849 139.259 80.8653 139.07C80.9055 138.935 80.9859 138.868 81.0261 138.908C81.0663 138.949 81.0261 139.057 80.9323 139.151ZM137.285 142.375C137.245 142.483 137.205 142.443 137.205 142.294C137.192 142.146 137.232 142.065 137.272 142.119C137.312 142.159 137.326 142.281 137.285 142.375ZM137.017 145.478C136.991 145.653 136.964 145.519 136.964 145.181C136.964 144.844 136.991 144.709 137.017 144.871C137.044 145.046 137.044 145.316 137.017 145.478ZM137.058 146.139C137.058 146.207 137.004 146.261 136.951 146.261C136.884 146.261 136.83 146.166 136.83 146.058C136.83 145.95 136.884 145.896 136.951 145.937C137.004 145.977 137.058 146.058 137.058 146.139ZM80.8251 146.868C80.6241 147.272 80.4366 147.583 80.4098 147.556C80.3562 147.488 81.0261 146.126 81.1199 146.126C81.1601 146.126 81.0261 146.463 80.8251 146.868ZM146.798 146.76C146.758 146.895 146.731 146.814 146.731 146.598C146.731 146.368 146.758 146.274 146.798 146.355C146.825 146.449 146.825 146.638 146.798 146.76ZM120.323 146.706C120.189 146.827 120.176 146.814 120.256 146.625C120.296 146.49 120.377 146.422 120.417 146.463C120.457 146.503 120.417 146.611 120.323 146.706ZM119.908 147.205C119.827 147.353 119.734 147.475 119.694 147.475C119.667 147.475 119.694 147.353 119.774 147.205C119.854 147.057 119.948 146.935 119.988 146.935C120.015 146.935 119.988 147.057 119.908 147.205ZM136.924 147.367C136.924 147.677 136.883 147.758 136.803 147.623C136.696 147.461 136.75 146.935 136.87 146.935C136.897 146.935 136.924 147.137 136.924 147.367ZM140.273 148.554C140.193 148.702 140.099 148.824 140.059 148.824C140.032 148.824 140.059 148.702 140.139 148.554C140.22 148.406 140.313 148.284 140.354 148.284C140.38 148.284 140.354 148.406 140.273 148.554ZM138.974 151.185C138.933 151.306 138.866 151.374 138.84 151.333C138.799 151.293 138.813 151.212 138.866 151.131C138.987 150.915 139.067 150.955 138.974 151.185ZM115.312 154.787C115.285 154.962 115.259 154.854 115.259 154.557C115.245 154.261 115.272 154.126 115.312 154.247C115.339 154.382 115.339 154.625 115.312 154.787ZM115.178 155.933C115.138 156.068 115.111 155.987 115.111 155.772C115.111 155.542 115.138 155.448 115.178 155.529C115.205 155.623 115.205 155.812 115.178 155.933ZM115.044 156.675C115.004 156.77 114.977 156.702 114.977 156.513C114.977 156.325 115.004 156.257 115.044 156.338C115.071 156.433 115.071 156.594 115.044 156.675ZM63.8227 159.562C63.9433 159.67 64.0371 159.832 64.0371 159.913C64.0371 159.981 63.6083 161.883 63.0992 164.149C62.5767 166.402 62.1211 168.628 62.0809 169.087C61.9469 170.422 61.4646 170.908 60.8885 170.274C60.5535 169.91 60.6339 169.37 61.679 164.878C62.1479 162.841 62.5633 160.911 62.6168 160.601C62.7374 159.738 62.9652 159.347 63.3136 159.347C63.4743 159.347 63.7155 159.441 63.8227 159.562ZM67.1455 160.655C67.6948 161.154 67.1723 162.18 66.3684 162.18C65.7253 162.18 65.6181 161.046 66.221 160.628C66.5961 160.372 66.8373 160.372 67.1455 160.655ZM110.636 161.276C110.797 161.613 110.784 161.802 110.556 162.76C110.395 163.367 110.301 163.879 110.328 163.906C110.355 163.947 110.944 163.852 111.641 163.731C113.048 163.461 113.343 163.502 113.343 163.974C113.343 164.5 112.968 164.702 111.373 165.026L109.873 165.35L109.658 166.254C108.935 169.505 110.261 170.058 112.123 167.266C112.552 166.632 112.887 166.47 113.021 166.834C113.061 166.942 112.874 167.522 112.592 168.129C111.936 169.545 111.239 170.166 110.221 170.234C109.363 170.301 108.801 169.991 108.466 169.262C108.265 168.844 108.238 168.534 108.292 167.522C108.345 166.847 108.412 166.105 108.452 165.89C108.519 165.525 108.479 165.458 108.091 165.282C107.26 164.905 107.488 164.203 108.452 164.203H109.028L109.243 163.326C109.363 162.854 109.457 162.247 109.457 161.991C109.457 161.734 109.524 161.357 109.618 161.168C109.832 160.682 110.395 160.75 110.636 161.276ZM152.305 161.276C152.466 161.613 152.452 161.802 152.225 162.76C152.064 163.367 151.97 163.879 151.997 163.906C152.024 163.947 152.613 163.852 153.31 163.731C154.717 163.461 155.011 163.502 155.011 163.974C155.011 164.5 154.636 164.702 153.042 165.026L151.541 165.35L151.327 166.254C150.603 169.505 151.93 170.058 153.792 167.266C154.221 166.632 154.556 166.47 154.69 166.834C154.73 166.942 154.542 167.522 154.261 168.129C153.605 169.545 152.908 170.166 151.89 170.234C151.032 170.301 150.469 169.991 150.134 169.262C149.933 168.844 149.907 168.534 149.96 167.522C150.014 166.847 150.081 166.105 150.121 165.89C150.188 165.525 150.148 165.458 149.759 165.282C148.929 164.905 149.156 164.203 150.121 164.203H150.697L150.911 163.326C151.032 162.854 151.126 162.247 151.126 161.991C151.126 161.734 151.193 161.357 151.287 161.168C151.501 160.682 152.064 160.75 152.305 161.276ZM55.7301 163.191C55.8909 163.394 55.8775 163.583 55.6497 164.136C55.5694 164.352 55.6631 164.311 56.0919 163.96C57.2173 163.07 58.249 162.881 58.9055 163.448C59.2539 163.758 59.2807 163.839 59.2673 164.77C59.2539 165.593 59.1199 166.146 58.4634 168.115L57.6729 170.476H57.2039H56.735L56.7618 169.802C56.7752 169.411 57.0432 168.426 57.3781 167.441C58.1016 165.377 58.2088 164.878 57.9676 164.554C57.8069 164.338 57.7265 164.325 57.3111 164.46C56.8556 164.608 55.556 165.633 55.0334 166.254C54.7655 166.551 54.3501 167.9 54.1357 169.114C53.9616 170.058 53.7874 170.301 53.3318 170.247C53.0237 170.207 52.9835 170.139 52.9433 169.64C52.8763 168.75 54.3233 163.758 54.819 163.164C55.0066 162.922 55.5292 162.949 55.7301 163.191ZM70.4682 163.191C70.629 163.394 70.6156 163.583 70.3878 164.136C70.3075 164.352 70.4012 164.311 70.83 163.96C71.9555 163.07 72.9871 162.881 73.6436 163.448C73.992 163.758 74.0188 163.839 74.0054 164.77C73.992 165.593 73.858 166.146 73.2015 168.115L72.411 170.476H71.942H71.4731L71.4999 169.802C71.5133 169.411 71.7813 168.426 72.1162 167.441C72.8397 165.377 72.9469 164.878 72.7057 164.554C72.545 164.338 72.4646 164.325 72.0492 164.46C71.5937 164.608 70.2941 165.633 69.7715 166.254C69.5036 166.551 69.0882 167.9 68.8738 169.114C68.6997 170.058 68.5255 170.301 68.0699 170.247C67.7618 170.207 67.7216 170.139 67.6814 169.64C67.6144 168.75 69.0614 163.758 69.5572 163.164C69.7447 162.922 70.2673 162.949 70.4682 163.191ZM127.357 163.326C127.572 163.65 127.558 163.771 127.223 165.458C126.982 166.672 126.875 167.67 126.875 168.601C126.875 170.018 126.781 170.274 126.272 170.274C125.83 170.274 125.669 170.004 125.669 169.303C125.669 168.952 125.616 168.655 125.535 168.655C125.468 168.655 125.401 168.709 125.401 168.777C125.401 168.844 125.12 169.208 124.785 169.586C123.78 170.719 123.123 170.922 122.32 170.368C121.717 169.964 121.382 169.276 121.382 168.453C121.395 167.508 122.333 163.798 122.601 163.623C122.896 163.434 123.485 163.61 123.579 163.906C123.633 164.041 123.418 165.053 123.11 166.159C122.547 168.237 122.507 168.857 122.936 169.208C123.458 169.64 124.852 168.264 125.415 166.766C125.575 166.362 125.817 165.417 125.977 164.675C126.125 163.933 126.312 163.245 126.379 163.151C126.594 162.868 127.116 162.962 127.357 163.326ZM144.159 163.191C144.32 163.394 144.306 163.583 144.078 164.136C143.998 164.352 144.092 164.311 144.521 163.96C145.646 163.07 146.678 162.881 147.334 163.448C147.683 163.758 147.709 163.839 147.696 164.77C147.683 165.593 147.549 166.146 146.892 168.115L146.102 170.476H145.633H145.164L145.19 169.802C145.204 169.411 145.472 168.426 145.807 167.441C146.53 165.377 146.637 164.878 146.396 164.554C146.236 164.338 146.155 164.325 145.74 164.46C145.284 164.608 143.985 165.633 143.462 166.254C143.194 166.551 142.779 167.9 142.564 169.114C142.39 170.058 142.216 170.301 141.76 170.247C141.452 170.207 141.412 170.139 141.372 169.64C141.305 168.75 142.752 163.758 143.248 163.164C143.435 162.922 143.958 162.949 144.159 163.191ZM50.9603 163.529C52.327 164.743 51.992 167.306 50.2234 169.249C49.4195 170.139 48.6424 170.544 47.7715 170.544C45.7618 170.544 45.1053 168.682 46.2709 166.294C46.7935 165.215 47.9591 163.947 48.7362 163.61C49.0042 163.475 49.3258 163.326 49.4329 163.259C49.8617 163.003 50.4914 163.11 50.9603 163.529ZM105.947 163.34C106.134 163.461 106.242 163.691 106.242 163.933C106.242 164.743 105.974 164.932 105.371 164.527C105.103 164.352 104.969 164.338 104.594 164.46C103.977 164.662 103.08 165.458 103.214 165.66C103.267 165.755 103.723 166.038 104.205 166.281C105.424 166.901 105.625 167.144 105.545 167.913C105.505 168.237 105.371 168.669 105.25 168.857C104.821 169.519 103.307 170.274 102.423 170.274C101.673 170.274 100.949 169.424 101.432 169.114C101.525 169.06 101.927 169.006 102.356 168.992C102.771 168.979 103.401 168.83 103.75 168.682C104.674 168.264 104.58 167.927 103.374 167.293C102.437 166.807 101.954 166.24 101.954 165.62C101.954 165.013 102.959 163.92 104.031 163.353C104.553 163.07 105.558 163.07 105.947 163.34ZM90.9006 164.041L91.048 164.621L91.3696 164.257C91.8787 163.718 92.4146 163.488 93.0175 163.569C93.6339 163.65 94.1296 164.082 94.2502 164.621C94.4512 165.539 93.6473 165.876 93.0711 165.121C92.7496 164.716 92.7094 164.702 92.3208 164.878C92.0931 164.972 91.6375 165.35 91.316 165.714C90.78 166.308 90.6862 166.51 90.3781 167.846C90.1905 168.669 90.0297 169.505 90.0297 169.707C90.0297 170.166 89.8154 170.409 89.4 170.409C88.7971 170.409 88.7837 170.045 89.2928 167.36C89.5474 165.97 89.7618 164.635 89.7618 164.379C89.7618 163.691 89.9761 163.367 90.4049 163.421C90.713 163.448 90.7934 163.556 90.9006 164.041ZM130.961 164.041L131.109 164.621L131.43 164.257C131.94 163.718 132.475 163.488 133.078 163.569C133.695 163.65 134.19 164.082 134.311 164.621C134.512 165.539 133.708 165.876 133.132 165.121C132.81 164.716 132.77 164.702 132.382 164.878C132.154 164.972 131.698 165.35 131.377 165.714C130.841 166.308 130.747 166.51 130.439 167.846C130.251 168.669 130.091 169.505 130.091 169.707C130.091 170.166 129.876 170.409 129.461 170.409C128.858 170.409 128.845 170.045 129.354 167.36C129.608 165.97 129.823 164.635 129.823 164.379C129.823 163.691 130.037 163.367 130.466 163.421C130.774 163.448 130.854 163.556 130.961 164.041ZM119.881 163.691C120.122 163.933 120.082 164.284 119.627 166.186C119.399 167.131 119.131 168.399 119.024 168.979C118.836 170.085 118.715 170.274 118.206 170.274C117.818 170.274 117.711 170.072 117.751 169.357C117.778 168.817 117.764 168.777 117.51 168.911C117.362 168.992 117.201 169.127 117.161 169.195C116.974 169.505 116.009 170.004 115.607 170.004C115.111 170.004 114.482 169.397 114.348 168.79C114.24 168.291 114.562 166.982 115.031 166.065C115.446 165.242 116.532 164.055 117.134 163.744C117.657 163.488 119.64 163.448 119.881 163.691ZM140.112 163.691C140.354 163.933 140.313 164.284 139.858 166.186C139.63 167.131 139.362 168.399 139.255 168.979C139.067 170.085 138.947 170.274 138.438 170.274C138.049 170.274 137.942 170.072 137.982 169.357C138.009 168.817 137.996 168.777 137.741 168.911C137.594 168.992 137.433 169.127 137.393 169.195C137.205 169.505 136.24 170.004 135.838 170.004C135.343 170.004 134.713 169.397 134.579 168.79C134.472 168.291 134.793 166.982 135.262 166.065C135.678 165.242 136.763 164.055 137.366 163.744C137.888 163.488 139.871 163.448 140.112 163.691ZM66.3952 164.001C66.4755 164.19 65.2295 169.64 64.9749 170.234C64.908 170.409 64.7472 170.544 64.6266 170.544C64.305 170.544 63.9031 170.153 63.9031 169.842C63.9031 169.424 65.2429 164.163 65.4037 163.974C65.5913 163.731 66.3014 163.758 66.3952 164.001ZM80.1016 164.149C80.4634 164.446 80.5169 164.581 80.5169 165.134C80.5169 166.375 79.4585 167.239 77.5425 167.589C76.8592 167.711 76.618 167.819 76.5511 168.008C76.3233 168.75 76.9932 169.303 77.9445 169.154C78.2124 169.1 78.8556 168.857 79.3513 168.588C80.3428 168.075 80.6241 168.021 80.7313 168.304C80.8787 168.696 80.3964 169.276 79.5523 169.748C78.7752 170.166 78.6144 170.207 77.5425 170.207C75.8008 170.207 75.3988 169.829 75.238 168.021C75.1576 167.077 75.171 167.036 75.5596 166.605C75.7739 166.362 75.9615 166.119 75.9615 166.078C75.9615 166.024 76.2027 165.674 76.4975 165.296C77.5827 163.906 79.2173 163.394 80.1016 164.149ZM99.5291 164.149C99.8909 164.446 99.9445 164.581 99.9445 165.134C99.9445 166.375 98.886 167.239 96.97 167.589C96.2867 167.711 96.0456 167.819 95.9786 168.008C95.7508 168.75 96.4207 169.303 97.372 169.154C97.64 169.1 98.2831 168.857 98.7788 168.588C99.7703 168.075 100.052 168.021 100.159 168.304C100.306 168.696 99.8239 169.276 98.9798 169.748C98.2027 170.166 98.0419 170.207 96.97 170.207C95.2283 170.207 94.8263 169.829 94.6655 168.021C94.5851 167.077 94.5985 167.036 94.9871 166.605C95.2015 166.362 95.389 166.119 95.389 166.078C95.389 166.024 95.6302 165.674 95.925 165.296C97.0102 163.906 98.6448 163.394 99.5291 164.149ZM100.748 182.024V182.969L101.097 182.699C101.525 182.362 102.303 182.335 102.651 182.645C102.852 182.834 102.892 183.077 102.892 184.466V186.058H102.222H101.552V184.574C101.552 183.319 101.525 183.09 101.338 183.09C101.003 183.09 100.748 183.94 100.748 185.046V186.058H100.078H99.4085V183.643V181.215L99.9177 181.161C100.186 181.134 100.494 181.107 100.588 181.094C100.695 181.067 100.748 181.336 100.748 182.024ZM112.74 181.539C112.74 181.903 112.7 181.943 112.284 181.943C111.735 181.943 111.454 181.606 111.735 181.269C111.842 181.134 112.07 181.067 112.324 181.094C112.686 181.134 112.74 181.188 112.74 181.539ZM109.162 181.363C109.404 181.606 109.35 181.97 109.069 182.051C108.895 182.092 108.787 182.038 108.747 181.862C108.667 181.566 108.385 181.512 108.385 181.795C108.385 182.2 108.56 182.416 108.868 182.416C109.069 182.416 109.189 182.497 109.189 182.618C109.189 182.726 109.069 182.82 108.921 182.82C108.667 182.82 108.653 182.915 108.653 184.439V186.058H107.983H107.314V184.439C107.314 183.09 107.287 182.82 107.113 182.82C107.005 182.82 106.912 182.726 106.912 182.618C106.912 182.51 107.005 182.416 107.113 182.416C107.233 182.416 107.314 182.294 107.314 182.092C107.314 181.417 108.68 180.878 109.162 181.363ZM112.914 184.21L112.954 186.058H112.271H111.601V184.25V182.429L112.043 182.375C112.914 182.267 112.874 182.186 112.914 184.21ZM115.044 182.551C115.111 182.793 115.138 182.793 115.393 182.618C115.768 182.348 116.545 182.362 116.853 182.645C117.054 182.834 117.094 183.077 117.094 184.466V186.058H116.424H115.754V184.655C115.754 183.198 115.62 182.807 115.259 183.292C115.138 183.468 115.085 183.967 115.085 184.803V186.058H114.415H113.745V184.25V182.429L114.12 182.375C114.87 182.267 114.977 182.281 115.044 182.551ZM121.221 183.927C121.234 184.803 121.301 185.518 121.355 185.518C121.757 185.505 121.851 185.208 121.891 183.859L121.944 182.443L122.427 182.362C122.708 182.321 123.003 182.281 123.097 182.281C123.217 182.281 123.257 182.753 123.257 184.169V186.058H122.588C122.065 186.058 121.918 186.018 121.918 185.842C121.918 185.64 121.891 185.64 121.583 185.842C121.167 186.112 120.39 186.126 120.122 185.842C119.948 185.68 119.908 185.303 119.908 184.034V182.429L120.283 182.375C121.194 182.227 121.181 182.186 121.221 183.927ZM80.7179 183.252C80.8385 183.724 80.9859 184.156 81.0261 184.237C81.0797 184.304 81.2003 183.94 81.3208 183.427L81.5218 182.483H81.9908C82.4329 182.483 82.4463 182.497 82.6473 183.319C82.7679 183.778 82.9018 184.183 82.942 184.223C82.9822 184.264 83.143 183.873 83.3172 183.36L83.6119 182.416H84.456H85.3001L85.5413 183.252C85.6619 183.724 85.8093 184.156 85.8495 184.237C85.9031 184.304 86.0236 183.94 86.1442 183.427L86.3452 182.483H86.8141C87.2563 182.483 87.2697 182.497 87.4707 183.319C87.5912 183.778 87.7252 184.183 87.7654 184.223C87.8056 184.264 87.9664 183.873 88.1406 183.36L88.4353 182.416H89.2124H89.9895L90.2307 183.252C90.3513 183.724 90.4987 184.156 90.5389 184.237C90.5925 184.304 90.713 183.94 90.8336 183.427L91.0346 182.483H91.5035C91.9457 182.483 91.9591 182.497 92.16 183.319C92.2806 183.778 92.4146 184.183 92.4548 184.223C92.495 184.264 92.6558 183.873 92.83 183.36C93.0175 182.766 93.2051 182.416 93.3257 182.416C93.4329 182.416 93.5133 182.456 93.5133 182.51C93.5133 182.564 93.2587 183.387 92.9505 184.331L92.3878 186.058H91.9591C91.5571 186.058 91.5169 186.018 91.3696 185.343C91.1284 184.318 91.0748 184.304 90.847 185.195C90.6326 185.964 90.6192 185.991 90.1905 185.991H89.7484L89.2392 184.439L88.7301 182.888L88.221 184.466C87.6984 186.058 87.6984 186.058 87.2697 186.058C86.8677 186.058 86.8275 186.018 86.6802 185.343C86.439 184.318 86.3854 184.304 86.1576 185.195C85.9433 185.964 85.9299 185.991 85.5011 185.991H85.059L84.5766 184.507C84.3221 183.684 84.0675 182.982 84.0139 182.928C83.9603 182.861 83.6789 183.549 83.3976 184.439L82.875 186.058H82.4463C82.0443 186.058 82.0042 186.018 81.8568 185.343C81.6156 184.318 81.562 184.304 81.3342 185.195C81.1199 185.964 81.1065 185.991 80.6777 185.991H80.2356L79.6461 184.196L79.0699 182.416H79.78H80.4767L80.7179 183.252ZM98.6716 182.753C99.0736 183.144 99.1004 183.441 98.752 183.63C98.3769 183.819 98.3634 183.805 98.3099 183.346C98.2831 183.104 98.1625 182.847 98.0285 182.766C97.8275 182.645 97.7337 182.672 97.5194 182.942C97.3184 183.185 97.2648 183.468 97.2648 184.304C97.2648 185.424 97.4256 185.788 97.9347 185.788C98.2831 185.788 98.6582 185.195 98.5778 184.776C98.5108 184.426 98.6582 184.345 98.9932 184.561C99.2611 184.736 99.0602 185.464 98.6448 185.788C98.1893 186.153 97.0906 186.153 96.5011 185.788C95.8178 185.37 95.6168 184.358 96.0456 183.414C96.4877 182.443 97.9883 182.051 98.6716 182.753ZM105.96 182.604C106.362 182.82 106.577 183.212 106.711 183.954L106.804 184.439H105.853H104.902V184.817C104.902 185.653 105.974 185.95 106.161 185.168C106.268 184.749 106.737 184.763 106.67 185.181C106.59 185.707 106.014 186.058 105.264 186.058C104.339 186.058 103.763 185.707 103.575 185.019C103.374 184.331 103.388 184.129 103.656 183.481C104.018 182.551 105.063 182.146 105.96 182.604ZM126.513 182.564C126.969 182.807 127.009 182.942 127.009 184.331C127.009 185.451 127.036 185.653 127.223 185.653C127.344 185.653 127.411 185.734 127.384 185.815C127.304 186.045 126.285 186.112 125.924 185.923C125.723 185.802 125.602 185.802 125.495 185.91C125.415 185.991 125.106 186.058 124.812 186.058C123.338 186.058 123.284 184.318 124.731 183.886C125.415 183.67 125.776 183.292 125.589 182.982C125.267 182.47 124.356 182.807 124.53 183.373C124.584 183.508 124.557 183.63 124.477 183.63C123.847 183.63 123.713 182.942 124.303 182.631C124.731 182.389 126.098 182.348 126.513 182.564ZM95.1077 185.141C95.2685 185.599 95.0809 185.991 94.6655 186.031C94.2234 186.085 93.9152 185.856 93.9152 185.464C93.9152 185.06 94.1564 184.844 94.6119 184.844C94.8933 184.844 95.0273 184.925 95.1077 185.141ZM110.784 185.141C110.944 185.599 110.757 185.991 110.342 186.031C109.899 186.085 109.591 185.856 109.591 185.464C109.591 185.06 109.832 184.844 110.288 184.844C110.569 184.844 110.703 184.925 110.784 185.141ZM118.957 185.141C119.117 185.599 118.93 185.991 118.514 186.031C118.072 186.085 117.764 185.856 117.764 185.464C117.764 185.06 118.005 184.844 118.461 184.844C118.742 184.844 118.876 184.925 118.957 185.141Z" fill="#050505"/>
</svg>
