<svg width="216" height="216" viewBox="0 0 216 216" fill="none" xmlns="http://www.w3.org/2000/svg">
<circle cx="109.328" cy="107.04" r="103.285" stroke="url(#paint0_linear_1_4573)"/>
<circle cx="109.328" cy="105.118" r="93.1791" fill="white"/>
<path d="M103.533 3.5747C68.791 5.54434 37.4792 24.9439 20.1821 55.2035C18.7752 57.6588 16.4171 62.3536 15.3051 64.8764C2.09439 94.9741 3.90315 129.591 20.1821 158.056C33.1918 180.815 54.4817 197.827 79.4159 205.395C110.795 214.933 144.732 208.876 170.899 189.058C189.777 174.771 203.176 154.333 208.83 131.197C215.114 105.551 211.255 78.1512 198.138 55.2035C179.756 23.0552 145.55 3.25093 108.758 3.45329C106.949 3.45329 104.605 3.52074 103.533 3.5747ZM97.1954 25.4296C97.7045 25.9153 97.6777 25.8073 98.1199 29.4633C98.3074 31.0552 98.5218 32.809 98.5754 33.3621C98.6424 33.9018 98.763 34.5493 98.83 34.7787C98.9104 35.008 99.0309 35.777 99.0979 36.4785C99.1783 37.18 99.4463 39.4599 99.7143 41.5375C99.9688 43.615 100.25 45.7736 100.317 46.3267C100.786 50.239 101.536 56.0804 101.644 56.5796C101.724 56.9169 101.831 57.6723 101.912 58.2659C102.26 60.9911 102.488 62.7853 102.796 65.3485C103.171 68.357 104.296 77.0854 104.39 77.6251C104.43 77.9218 104.712 79.8375 104.926 81.4699C104.98 81.7667 105.154 83.2777 105.342 84.8426C105.529 86.394 105.797 88.5795 105.944 89.6992C106.092 90.8055 106.387 93.2742 106.614 95.1629C106.856 97.0516 107.07 98.6975 107.11 98.8054C107.204 99.0483 107.177 98.8594 107.726 103.19C107.981 105.119 108.155 106.778 108.115 106.859C108.088 106.954 107.981 107.035 107.887 107.035C107.713 107.035 107.646 106.819 107.472 105.753C107.432 105.456 107.338 105.025 107.271 104.809C107.204 104.579 107.07 103.77 106.949 102.988C106.842 102.205 106.601 100.6 106.413 99.4125C106.226 98.2253 105.918 96.2152 105.73 94.9606C105.395 92.7481 104.658 88.2287 104.538 87.6756C104.471 87.3923 103.694 82.4547 103.265 79.6487C103.117 78.7178 102.943 77.5711 102.863 77.0854C102.796 76.5998 102.541 74.9944 102.314 73.5104C102.086 72.0264 101.858 70.7178 101.831 70.6099C101.791 70.502 101.737 70.2861 101.724 70.1377C101.711 69.9893 101.469 68.5054 101.201 66.8325C100.652 63.4868 100.572 62.9877 99.7812 57.7937C99.4865 55.8241 99.1247 53.6386 98.9907 52.9371C98.6826 51.4397 98.6558 51.2643 97.3026 42.4548C96.9676 40.2963 96.5791 37.841 96.4317 36.9911C96.2977 36.1547 96.0565 34.7921 95.9091 33.9827C95.7752 33.1598 95.5206 31.6218 95.3598 30.5426C95.199 29.4633 94.9847 28.1008 94.8909 27.5072C94.7435 26.6168 94.7435 26.3605 94.8909 26.0097C95.333 24.9305 96.4183 24.6606 97.1954 25.4296ZM117.172 28.0603C117.722 28.438 117.909 29.0046 117.815 29.9895C117.708 31.0148 117.762 30.5561 117.065 38.5021C116.77 41.8748 116.462 45.3418 116.382 46.1918C116.315 47.0417 116.194 48.4447 116.127 49.2946C115.792 53.5712 115.712 54.4076 115.591 55.0282C115.457 55.7567 115.31 57.3081 114.988 61.099C114.787 63.4733 114.117 71.1091 113.314 80.2962C113.099 82.8325 112.885 85.1394 112.845 85.4227C112.724 86.2456 111.438 100.478 110.754 108.451C110.674 109.409 110.553 110.259 110.5 110.326C110.433 110.394 110.285 110.407 110.165 110.353C109.91 110.259 109.91 110.529 110.285 105.821C110.406 104.296 110.768 98.2928 111.103 92.4648C111.438 86.6368 111.8 80.4176 111.907 78.6369C112.014 76.8561 112.175 74.2119 112.242 72.7684C112.322 71.3249 112.443 69.1664 112.51 67.9792C112.577 66.792 112.67 65.2406 112.711 64.5391C112.751 63.8376 112.845 62.7448 112.912 62.1108C112.992 61.4767 113.139 59.4396 113.247 57.5914C114.037 43.8714 114.627 33.8748 114.868 30.0434C114.948 28.7213 115.176 28.2222 115.779 27.9793C116.234 27.7905 116.851 27.8309 117.172 28.0603ZM72.5693 44.5729C73.2928 46.3132 74.4719 49.1732 75.182 50.9135C75.8921 52.6538 76.7496 54.7179 77.0712 55.5003C80.059 62.6504 80.2198 63.0956 80.2198 64.4042C80.2198 65.3485 80.1796 65.4969 79.7374 66.2389C78.679 68.0062 78.21 69.2878 78.21 70.475C78.21 71.5812 78.3306 71.905 84.0651 87.5407C87.2673 96.2557 87.6424 97.0921 94.9177 111.487C95.7216 113.079 96.5523 114.778 96.7666 115.264C96.9676 115.75 97.2758 116.438 97.4365 116.815C98.1333 118.367 98.5352 120.053 98.3878 120.822C98.1467 122.171 96.0967 123.237 94.1272 123.048C93.4439 122.994 93.2429 122.9 92.8677 122.536C91.7423 121.429 90.6972 118.461 88.6607 110.475C86.7313 102.92 86.0212 100.397 84.5474 95.9724C84.0249 94.4075 83.1674 92.141 81.8945 88.8898C75.8653 73.5509 75.8251 73.4564 75.3562 72.647C74.5121 71.217 73.0383 70.2052 71.0955 69.733C69.9031 69.4362 69.059 68.7077 68.4695 67.4801C68.2417 67.0079 67.143 63.986 66.0176 60.7617C64.9055 57.5374 63.8069 54.3941 63.5925 53.7735C63.3781 53.1664 63.0298 52.1681 62.8154 51.5476C62.1053 49.5105 61.4354 47.6218 61.0468 46.529C60.6717 45.4903 60.6851 45.126 61.087 45.2744C61.1808 45.3149 61.4086 45.7061 61.5827 46.1378C62.8958 49.3891 68.3757 62.2322 68.5365 62.4076C68.9652 62.9067 69.9031 62.529 69.9031 61.8679C69.9031 61.6656 69.5949 60.5863 69.2198 59.4801C68.8446 58.3604 67.7594 55.1766 66.8215 52.3975C65.8836 49.6184 64.8653 46.6235 64.5572 45.7331C64.2624 44.8562 64.048 44.0872 64.0882 44.0198C64.2222 43.7904 64.5438 43.8984 64.6778 44.1951C64.7447 44.3705 66.1114 47.5948 67.7058 51.3857C69.3002 55.1631 70.841 58.8325 71.1223 59.534C71.4037 60.2356 71.7386 60.9101 71.8592 61.045C72.3148 61.5577 73.2527 61.2069 73.2527 60.5459C73.2527 60.3705 73.0785 59.6959 72.8641 59.0484C72.5023 57.9691 69.3671 48.701 67.9469 44.5189C67.3842 42.8326 67.3574 42.5628 67.7728 42.5493C67.8263 42.5493 68.2551 43.4801 68.7374 44.5999C75.048 59.561 75.1686 59.8443 75.4902 59.9927C75.9457 60.1951 76.5218 59.8713 76.5754 59.3722C76.629 58.873 76.8702 59.6015 72.1942 45.8275C71.3903 43.4397 70.7606 41.4565 70.8142 41.4161C71.0821 41.1463 71.3903 41.7129 72.5693 44.5729ZM149.636 42.3604C154.754 43.8579 156.737 51.9253 153.897 59.7229C152.021 64.8359 149.315 68.1276 146.139 69.1394C145.657 69.2878 144.706 69.4497 144.022 69.4902L142.763 69.5711L142.227 70.2456C141.932 70.6234 141.584 71.163 141.436 71.4328C141.182 71.9455 135.702 86.7178 134.456 90.2388C133.719 92.3569 132.969 94.5828 132.768 95.2979C132.687 95.5542 132.419 96.4985 132.165 97.3889C131.227 100.6 130.691 102.745 129.378 108.384C127.757 115.439 127.047 118.003 126.216 119.851C125.345 121.78 124.796 122.225 123.376 122.104C121.031 121.928 119.222 120.417 119.37 118.772C119.41 118.434 119.624 117.76 119.865 117.288C120.106 116.815 120.455 116.033 120.629 115.547C121.018 114.522 123.054 110.111 124.608 106.967C126.538 103.055 128.052 99.7498 129.592 96.1073C131.147 92.4108 131.254 92.1006 134.751 81.8072C138.743 70.0433 138.636 70.3941 138.636 69.1664V68.0737L137.444 66.873C135.528 64.9438 134.965 63.4329 134.965 60.2221C134.965 57.7803 135.354 55.7971 136.359 52.9641C138.529 46.8798 143.513 42.1985 147.894 42.1581C148.457 42.1446 149.234 42.239 149.636 42.3604ZM88.0979 128.903C88.7411 129.294 89.3306 129.834 89.478 130.171C89.545 130.32 89.6521 130.536 89.7191 130.643C89.9737 131.102 90.1211 131.777 90.0005 131.925C89.9335 132.019 89.9067 132.127 89.9469 132.168C90.0541 132.276 90.1345 133.746 90.0407 134.111C90.0005 134.286 89.9201 134.394 89.8665 134.353C89.7995 134.313 89.7861 134.488 89.8263 134.758C89.8799 135.109 89.8531 135.244 89.6789 135.311C89.5584 135.352 89.4646 135.514 89.4646 135.662C89.4646 135.797 89.5316 135.878 89.5986 135.837C89.6789 135.797 89.7325 135.824 89.7325 135.891C89.7325 135.972 89.6387 136.04 89.5316 136.04C89.3842 136.04 89.344 136.134 89.411 136.377C89.4646 136.62 89.4244 136.741 89.2636 136.795C89.0894 136.863 89.076 136.917 89.2234 136.998C89.3574 137.092 89.3306 137.119 89.1564 137.119C89.009 137.119 88.875 136.998 88.8348 136.836C88.7679 136.593 88.7009 136.66 88.4463 137.213C88.2721 137.564 88.1247 137.928 88.1247 138.009C88.1247 138.252 86.7581 140.856 85.7398 142.556C85.2173 143.433 84.8422 144.107 84.9092 144.067C85.1369 143.932 86.5437 141.53 87.4146 139.817C87.897 138.9 88.3391 138.063 88.4061 137.982C88.4731 137.901 88.4865 137.793 88.4463 137.753C88.4061 137.713 88.4597 137.537 88.5803 137.362L88.7947 137.065V137.389C88.8081 137.713 88.8081 137.713 88.9956 137.47C89.2368 137.146 89.2502 137.213 89.0492 137.78C88.9554 138.063 88.8616 138.171 88.7947 138.063C88.7277 137.955 88.6741 137.996 88.6205 138.185C88.5803 138.347 88.6071 138.468 88.6741 138.468C88.7277 138.468 88.7545 138.562 88.7009 138.684C88.6473 138.819 88.5937 138.846 88.5267 138.751C88.4329 138.589 88.2453 138.886 87.9908 139.574C87.9238 139.79 87.8032 139.952 87.7228 139.952C87.6558 139.952 87.5888 140.1 87.5888 140.276C87.5888 140.451 87.4816 140.734 87.3342 140.91C86.9457 141.422 86.5169 142.353 86.5839 142.542C86.6241 142.637 86.5303 142.893 86.383 143.122C86.2356 143.338 86.115 143.46 86.115 143.392C86.115 143.311 86.2088 143.109 86.3294 142.947C86.45 142.772 86.5169 142.596 86.4767 142.569C86.3964 142.488 85.7131 143.46 85.4585 143.999L85.2977 144.336L85.5657 144.013C85.9006 143.635 85.9274 143.743 85.6327 144.202C85.5121 144.39 85.3647 144.512 85.3111 144.471C85.2039 144.404 84.5876 145.078 84.6814 145.173C84.7216 145.213 84.8556 145.078 84.9895 144.89C85.1101 144.687 85.2441 144.552 85.2709 144.593C85.3111 144.62 85.1503 144.903 84.9226 145.227C84.6948 145.537 84.5072 145.928 84.5072 146.104C84.5072 146.266 84.467 146.508 84.4134 146.643C84.333 146.859 84.3196 146.859 84.2258 146.616C84.1455 146.414 84.1187 146.455 84.1187 146.805C84.1053 147.075 84.1588 147.223 84.2392 147.17C84.4536 147.035 84.4 147.601 84.1722 147.817C83.9981 147.992 83.9981 148.073 84.1588 148.37L84.333 148.734L84.9761 147.682C85.7264 146.468 87.4816 143.986 87.763 143.743C88.0176 143.541 88.2051 143.783 87.9908 144.026C87.2271 144.944 85.3915 147.817 84.8422 148.923C84.7082 149.22 84.5206 149.557 84.4268 149.665C84.3464 149.773 84.2258 150.043 84.1856 150.272C84.0919 150.664 84.0919 150.664 84.4268 150.164C84.6144 149.881 84.7752 149.625 84.7752 149.571C84.7752 149.53 85.1905 148.788 85.6997 147.925C86.7715 146.09 88.4061 143.918 88.7947 143.797C88.942 143.756 89.0626 143.635 89.0626 143.527C89.0626 143.325 90.3757 142.164 90.5498 142.205C90.6168 142.232 90.6704 142.097 90.6704 141.922C90.6704 141.719 90.5766 141.571 90.4426 141.544C90.2417 141.503 90.2417 141.476 90.4694 141.247C90.7106 141.004 90.724 141.004 91.0322 141.355C91.2063 141.557 91.3403 141.652 91.3403 141.584C91.3403 141.503 91.4341 141.436 91.5547 141.436C91.7021 141.436 91.7423 141.517 91.6887 141.733C91.6485 141.908 91.6485 141.962 91.6887 141.868C91.7289 141.787 91.8227 141.746 91.9031 141.787C91.9834 141.841 92.0906 141.8 92.1442 141.706C92.2246 141.584 92.2782 141.611 92.3452 141.827C92.3854 141.976 92.5462 142.111 92.6802 142.111C92.9481 142.111 93.685 143.244 93.551 143.46C93.4975 143.541 93.5376 143.581 93.6314 143.568C93.7118 143.541 93.8458 143.702 93.9128 143.932C94.1004 144.498 94.1138 148.896 93.9396 148.95C93.8592 148.977 93.819 149.409 93.8324 150.003C93.8458 150.569 93.819 151.041 93.7654 151.082C93.7118 151.109 93.685 151.446 93.7252 151.824C93.752 152.202 93.7118 152.687 93.6448 152.89C93.551 153.159 93.551 153.321 93.6582 153.429C93.7654 153.537 93.7654 153.618 93.685 153.686C93.5108 153.807 93.5109 153.982 93.7118 154.32C93.8056 154.468 93.886 154.508 93.886 154.414C93.886 154.32 93.9396 154.266 94.0066 154.306C94.154 154.401 95.0249 153.308 96.0699 151.689C96.5255 150.987 96.981 150.394 97.0614 150.367C97.249 150.313 96.4585 151.675 95.5742 152.957C95.266 153.389 94.9713 153.847 94.8909 153.969C94.8239 154.09 94.5827 154.387 94.3683 154.643C94.1004 154.967 94.0334 155.129 94.154 155.169C94.2478 155.21 94.3549 155.169 94.4085 155.102C94.4487 155.035 94.8507 154.468 95.3062 153.834C96.2441 152.552 97.6777 150.191 97.9725 149.476C98.3208 148.653 98.1869 148.627 97.7447 149.422C97.5169 149.854 97.2758 150.205 97.2088 150.205C96.9944 150.205 99.6473 145.132 100.29 144.323C101.617 142.677 103.077 141.854 104.43 142.016C106.132 142.205 108.691 144.215 109.281 145.834C109.468 146.32 109.562 146.792 109.522 147.062C109.401 147.804 108.731 148.977 107.941 149.841C106.454 151.487 105.154 151.837 103.359 151.082C102.863 150.879 102.421 150.731 102.394 150.772C102.367 150.799 102.206 151.392 102.059 152.094C101.724 153.551 101.737 155.412 102.072 155.817C102.863 156.788 105.476 156.586 107.472 155.412C108.249 154.954 109.629 153.672 110.366 152.701C110.674 152.296 110.982 151.986 111.036 152.026C111.103 152.067 111.197 152.026 111.25 151.945C111.304 151.837 111.29 151.824 111.197 151.878C110.955 152.026 111.009 151.743 111.264 151.54C111.465 151.379 111.478 151.379 111.371 151.554C111.304 151.675 111.317 151.716 111.384 151.648C111.451 151.581 111.505 151.433 111.505 151.311C111.505 151.19 111.572 151.095 111.666 151.109C111.759 151.136 111.799 151.068 111.773 150.974C111.733 150.893 111.84 150.664 111.987 150.475C112.134 150.286 112.215 150.218 112.161 150.326C112.094 150.448 112.121 150.488 112.228 150.421C112.309 150.367 112.349 150.272 112.309 150.205C112.201 150.03 112.496 149.503 112.644 149.598C112.711 149.638 112.804 149.598 112.858 149.517C112.912 149.409 112.898 149.395 112.804 149.449C112.577 149.584 112.603 149.476 112.925 148.937C113.086 148.667 113.26 148.478 113.314 148.519C113.38 148.559 113.474 148.519 113.528 148.438C113.581 148.33 113.568 148.316 113.474 148.37C113.381 148.424 113.314 148.438 113.314 148.397C113.314 148.235 114.131 147.035 114.251 147.035C114.305 147.035 114.412 146.981 114.479 146.913C114.546 146.846 114.519 146.832 114.426 146.886C114.211 147.008 114.198 146.805 114.399 146.603C114.493 146.508 114.667 145.699 114.814 144.782C115.672 139.17 117.44 134.866 119.785 132.708C120.2 132.343 120.75 131.925 121.044 131.79C121.661 131.493 122.759 131.358 122.88 131.574C122.933 131.655 123.067 131.723 123.175 131.723C123.751 131.723 125.117 133.126 124.903 133.476C124.863 133.557 124.876 133.611 124.957 133.611C125.131 133.611 125.037 135.082 124.849 135.271C124.729 135.392 124.675 135.352 124.622 135.122C124.501 134.677 124.34 134.88 124.247 135.595C124.126 136.404 123.791 137.497 123.617 137.605C123.483 137.686 123.603 136.971 123.751 136.849C123.791 136.809 123.858 136.566 123.871 136.31C123.898 136.053 123.979 135.77 124.046 135.689C124.113 135.608 124.126 135.5 124.072 135.446C124.019 135.406 123.898 135.527 123.818 135.729C123.67 136.053 123.657 135.945 123.724 134.92C123.791 133.854 123.778 133.746 123.563 133.746C123.376 133.746 123.362 133.706 123.496 133.544C123.603 133.423 123.603 133.342 123.523 133.342C123.295 133.342 122.063 135.095 121.567 136.107C121.326 136.62 120.924 137.591 120.683 138.266C120.441 138.927 120.2 139.601 120.147 139.75C120.08 139.898 119.999 140.262 119.959 140.559C119.919 140.883 119.932 141.004 119.986 140.842C120.08 140.627 120.12 140.613 120.173 140.788C120.227 140.896 120.2 141.072 120.133 141.18C120.066 141.288 120.013 141.517 120.013 141.706C120.013 141.895 119.946 142.137 119.865 142.245C119.758 142.394 119.745 142.272 119.798 141.773L119.879 141.099L119.664 141.638C119.41 142.326 119.209 143.325 119.343 143.325C119.396 143.325 119.49 143.163 119.53 142.974C119.664 142.475 119.785 142.677 119.678 143.176C119.624 143.446 119.504 143.594 119.37 143.594C119.182 143.594 119.182 143.621 119.329 143.716C119.437 143.783 119.597 143.81 119.691 143.77C119.812 143.729 119.745 143.959 119.53 144.35L119.182 145.011L119.53 144.606C120.12 143.918 121.862 141.045 122.666 139.439C123.081 138.589 123.443 137.969 123.469 138.05C123.577 138.374 121.795 141.611 119.664 144.944L119.45 145.281L119.731 144.944C120.321 144.269 122.21 141.207 123.027 139.628C123.161 139.345 123.309 139.183 123.335 139.264C123.362 139.345 123.255 139.628 123.094 139.885C122.933 140.154 122.84 140.451 122.88 140.573C122.933 140.707 122.907 140.748 122.799 140.68C122.706 140.613 122.679 140.654 122.732 140.802C122.786 140.937 122.759 140.991 122.652 140.95C122.478 140.896 122.076 141.746 122.103 142.07C122.116 142.164 122.076 142.218 122.022 142.178C121.969 142.137 121.875 142.205 121.835 142.326C121.781 142.448 121.808 142.502 121.902 142.434C122.009 142.38 121.996 142.434 121.902 142.637C121.808 142.785 121.714 142.92 121.674 142.92C121.634 142.92 121.647 142.839 121.701 142.745C121.741 142.664 121.634 142.758 121.446 142.987C121.018 143.5 120.602 144.202 120.803 144.08C121.071 143.905 120.964 144.134 120.401 144.917C119.825 145.713 119.477 146.117 119.678 145.766C119.745 145.632 119.731 145.605 119.624 145.672C119.544 145.726 119.504 145.82 119.544 145.888C119.584 145.955 119.504 146.185 119.356 146.387C118.659 147.345 117.963 156.181 118.391 158.502L118.485 159.041L118.713 158.367C119.276 156.64 119.37 153.429 118.874 151.932C118.74 151.5 118.659 151.122 118.7 151.082C118.74 151.041 119.396 150.987 120.16 150.974C121.326 150.933 121.701 150.866 122.465 150.556C123 150.326 123.63 149.935 123.952 149.611C124.273 149.301 124.769 148.842 125.05 148.586C125.332 148.316 125.801 147.831 126.069 147.507C126.337 147.17 126.564 146.967 126.564 147.062C126.578 147.156 126.471 147.331 126.337 147.466C126.203 147.601 125.921 147.938 125.72 148.235C125.506 148.519 125.01 149.085 124.608 149.476C124.22 149.881 123.952 150.205 124.019 150.205C124.247 150.205 124.943 149.53 125.827 148.478C126.658 147.466 126.685 147.399 126.779 146.495C127.033 143.932 127.743 141.679 128.346 141.449C128.655 141.328 129.137 141.476 129.11 141.679C129.097 141.733 129.097 141.922 129.11 142.097L129.123 142.421L129.458 142.111L129.793 141.8L130.517 142.556C131.763 143.851 131.991 145.186 131.683 149.261C131.616 150.11 131.508 151.837 131.455 153.092C131.348 155.696 131.254 155.547 132.594 154.751C133.558 154.171 134.443 153.267 135.313 151.918C136.184 150.596 137.35 148.519 137.497 148.046C137.551 147.858 137.765 147.358 137.98 146.927C138.194 146.495 138.382 145.982 138.382 145.78C138.422 145.078 139.078 142.718 139.413 142.07C139.735 141.463 139.789 141.422 140.231 141.463C140.7 141.503 140.713 141.517 140.673 142.043L140.633 142.583L141.035 142.191L141.436 141.8L141.584 142.124C141.664 142.313 141.865 142.515 142.026 142.583C142.187 142.664 142.374 142.852 142.455 143.014C142.522 143.19 142.656 143.325 142.75 143.325C143.031 143.325 143.017 145.645 142.723 148.721C142.428 151.635 142.401 152.242 142.535 152.148C142.602 152.107 142.656 151.986 142.656 151.878C142.656 151.77 142.709 151.689 142.776 151.689C142.843 151.689 143.084 151.406 143.312 151.041C144.036 149.922 144.813 148.802 145.081 148.505C145.215 148.357 145.335 148.195 145.335 148.141C145.335 148.033 147.211 145.51 147.814 144.809C149.06 143.365 149.489 143.082 149.918 143.487C150.011 143.581 150.266 143.756 150.48 143.864C151.365 144.323 152.557 146.036 152.57 146.859C152.57 147.062 152.637 147.264 152.704 147.304C152.785 147.345 152.838 147.547 152.825 147.75L152.812 148.114L152.704 147.777C152.637 147.574 152.597 148.06 152.597 149.058C152.611 149.949 152.637 150.529 152.691 150.34C152.731 150.151 152.798 151.028 152.838 152.282L152.905 154.562L153.709 153.429C154.151 152.809 155.009 151.675 155.625 150.906C156.228 150.151 156.724 149.49 156.724 149.463C156.724 149.301 158.667 146.428 158.76 146.428C158.894 146.428 158.921 146.401 158.064 147.709C157.729 148.222 157.354 148.869 157.22 149.126C157.086 149.382 156.563 150.178 156.054 150.879C155.531 151.581 155.063 152.256 155.009 152.363C154.821 152.768 153.482 154.724 153.2 155.048C152.999 155.264 152.972 155.345 153.106 155.304C153.482 155.183 157.702 149.139 158.506 147.574C158.707 147.17 159.27 146.562 159.27 146.751C159.27 146.805 159.203 146.981 159.122 147.143C158.961 147.439 158.961 147.439 159.256 147.183C159.511 146.94 159.564 146.954 159.524 147.183C159.524 147.237 159.578 147.318 159.658 147.358C159.752 147.426 159.484 148.006 158.935 148.991C158.466 149.827 158.104 150.569 158.158 150.65C158.198 150.731 158.171 150.745 158.104 150.704C158.024 150.65 157.916 150.704 157.876 150.825C157.836 150.933 157.742 151.001 157.689 150.96C157.622 150.92 157.447 151.122 157.3 151.392C157.139 151.662 156.885 152.134 156.724 152.431C156.563 152.728 156.349 153.065 156.242 153.186C156.134 153.294 156.054 153.456 156.054 153.537C156.054 153.618 156.014 153.712 155.96 153.739C155.893 153.753 155.732 153.996 155.598 154.252C155.464 154.508 155.397 154.657 155.478 154.589C155.813 154.225 156.349 153.402 156.925 152.323C157.273 151.675 157.581 151.163 157.622 151.203C157.702 151.271 157.126 152.404 156.456 153.524C155.893 154.441 155.826 154.589 156.067 154.441C156.175 154.387 156.175 154.441 156.067 154.643C155.88 154.981 155.773 155.021 155.866 154.684C155.933 154.495 155.907 154.495 155.732 154.711C155.478 155.021 155.451 155.25 155.679 155.116C155.88 154.981 155.344 155.871 154.661 156.788C154.151 157.476 153.602 157.895 153.2 157.895C152.905 157.895 151.512 157.234 150.869 156.788C150.253 156.37 149.208 154.886 148.873 153.969C148.524 152.997 148.296 151.244 148.27 149.449C148.256 147.777 148.256 147.777 148.002 148.1C147.868 148.276 147.747 148.478 147.747 148.532C147.747 148.586 147.841 148.519 147.961 148.37C148.149 148.127 148.162 148.127 148.015 148.411C147.935 148.586 147.801 148.707 147.72 148.68C147.64 148.667 147.546 148.734 147.506 148.842C147.466 148.964 147.506 148.991 147.6 148.937C147.774 148.829 147.037 150.218 146.635 150.758C146.501 150.933 146.581 150.718 146.823 150.272C147.064 149.827 147.318 149.382 147.385 149.288C147.452 149.193 147.493 149.085 147.452 149.058C147.372 148.964 145.979 151.473 144.947 153.524C144.505 154.428 143.862 155.642 143.527 156.208C143.192 156.775 142.924 157.274 142.924 157.301C142.924 157.625 143.929 156.154 144.25 155.358C144.344 155.129 144.491 154.927 144.558 154.927C144.706 154.927 143.607 156.991 143.111 157.598C142.817 157.976 142.696 158.043 142.401 157.962C142.214 157.922 141.892 157.733 141.704 157.544C141.49 157.341 141.276 157.247 141.142 157.301C141.008 157.341 140.914 157.328 140.914 157.247C140.914 157.18 140.74 157.085 140.539 157.045C140.07 156.95 139.628 156.505 139.078 155.574C138.569 154.738 138.274 153.659 138.047 151.864L137.886 150.569L137.645 151.122C137.511 151.433 137.337 151.648 137.283 151.608C137.216 151.567 137.203 151.648 137.256 151.77C137.31 151.932 137.296 151.972 137.189 151.905C137.082 151.837 137.055 151.891 137.122 152.04C137.189 152.215 137.162 152.242 137.028 152.161C136.908 152.094 136.881 152.107 136.948 152.215C137.069 152.39 136.466 153.497 135.608 154.657C135.287 155.102 135.046 155.547 135.099 155.628C135.153 155.709 135.139 155.736 135.059 155.696C134.979 155.642 134.778 155.777 134.603 155.979L134.282 156.343L134.617 156.073L134.952 155.804L134.697 156.114C134.55 156.276 134.416 156.384 134.376 156.343C134.242 156.208 133.96 156.573 134.041 156.788C134.081 156.95 134.067 156.964 133.987 156.842C133.893 156.707 133.799 156.748 133.599 156.964C133.465 157.139 133.424 157.22 133.518 157.166C133.598 157.112 133.679 157.099 133.679 157.139C133.679 157.409 131.723 158.07 131.415 157.908C131.294 157.841 130.812 157.652 130.329 157.49C129.19 157.085 128.976 156.937 128.333 156.087C127.368 154.819 126.591 152.053 126.564 149.665C126.551 148.68 126.538 148.667 126.35 149.058C126.095 149.571 125.091 150.623 124.943 150.529C124.89 150.488 124.876 150.556 124.916 150.664C124.97 150.812 124.916 150.879 124.756 150.879C124.528 150.879 124.541 150.893 124.782 151.082C125.064 151.298 125.064 151.298 124.555 151.338C124.354 151.365 123.885 151.54 123.51 151.743C122.933 152.04 121.62 152.336 120.736 152.363C120.629 152.363 120.642 152.579 120.776 153.065C121.285 154.967 121.245 157.76 120.696 159.945C120.415 161.011 120.428 161.375 120.696 160.458C120.79 160.134 120.897 159.945 120.91 160.013C121.018 160.309 120.374 161.672 119.986 162.009C119.597 162.347 119.53 162.36 118.418 162.266C117.105 162.171 116.717 161.982 115.859 161.051C114.385 159.433 113.662 155.682 113.983 151.257C114.064 150.124 114.158 149.072 114.198 148.923L114.265 148.653L114.05 148.923C113.555 149.557 112.536 151.271 112.603 151.338C112.657 151.379 112.617 151.419 112.536 151.419C112.389 151.419 111.947 152.121 111.987 152.309C111.987 152.363 111.947 152.444 111.88 152.485C111.813 152.525 111.478 153.011 111.116 153.551C109.575 155.911 106.963 157.814 105.02 157.989C104.042 158.083 102.541 157.76 101.402 157.22C99.8482 156.478 98.3074 154.428 98.0931 152.795C98.0529 152.417 97.9591 152.094 97.9055 152.094C97.7313 152.094 95.7618 155.858 95.8421 156.046C95.9359 156.316 94.9311 157.692 94.5827 157.733C94.4219 157.76 94.2879 157.841 94.2879 157.908C94.2879 158.137 93.6984 158.03 93.3903 157.733C93.2295 157.571 92.8543 157.422 92.5864 157.395C91.7959 157.315 91.2599 156.977 90.6838 156.222C89.5852 154.792 89.1028 152.944 89.2368 150.61C89.3306 149.112 89.7191 146.589 90.0675 145.348C90.2953 144.471 90.3087 144.404 90.1479 144.404C89.9201 144.404 88.6473 146.063 88.7143 146.252C88.7545 146.36 88.7411 146.414 88.6741 146.36C88.4999 146.252 87.5754 147.844 87.6692 148.087C87.7094 148.195 87.6826 148.33 87.6022 148.384C87.5084 148.438 87.4816 148.37 87.5352 148.222C87.7094 147.682 87.1601 148.532 86.6509 149.598C85.6461 151.729 83.7703 156.33 83.9713 156.208C84.0383 156.168 84.3062 155.588 84.5876 154.927C84.8556 154.252 85.1101 153.726 85.1369 153.753C85.2173 153.847 84.4 156.033 84.1053 156.505C83.9579 156.748 83.7703 156.95 83.7033 156.95C83.6229 156.95 83.5961 156.869 83.6497 156.775C83.7301 156.653 83.6899 156.667 83.5425 156.788C83.355 156.937 83.2612 156.923 82.9262 156.68C82.6984 156.519 82.4573 156.411 82.3903 156.465C82.3099 156.505 82.2161 156.492 82.1625 156.411C82.1223 156.343 81.9347 156.276 81.7606 156.276C81.3452 156.276 80.3135 155.116 80.0992 154.401C79.858 153.551 79.6838 151.81 79.6838 150.003V148.384L78.9871 149.126C76.1199 152.188 74.9542 153.335 72.8909 155.089C71.6315 156.168 68.9116 157.409 68.0541 157.301C67.7594 157.274 67.6656 157.301 67.7192 157.436C67.7594 157.544 67.7326 157.625 67.6522 157.625C67.5852 157.625 67.3306 157.665 67.1028 157.706C66.7411 157.787 66.6875 157.76 66.7679 157.544C66.8215 157.355 66.8081 157.341 66.7277 157.463C66.6473 157.557 66.5401 157.625 66.4731 157.611C66.4061 157.598 66.3123 157.611 66.2587 157.625C66.1918 157.638 66.1114 157.665 66.0578 157.679C65.9908 157.692 65.8032 157.787 65.6424 157.881C65.2137 158.11 63.7399 157.989 62.6412 157.625C61.3952 157.207 60.6985 156.748 59.6802 155.696C57.7776 153.739 56.9335 150.758 57.3087 147.304C57.4695 145.766 58.1528 142.826 58.6351 141.584C58.7959 141.193 58.9031 140.842 58.8897 140.829C58.8629 140.802 58.4476 140.613 57.9652 140.384C54.7362 138.927 52.2575 136.026 51.6144 132.964C51.3733 131.763 51.3599 130.886 51.601 130.198C51.8824 129.402 52.1906 129.146 52.7399 129.186L53.2222 129.227V130.913C53.2356 132.397 53.2758 132.708 53.584 133.503C54.2807 135.365 55.5937 137.213 56.9067 138.212C57.5097 138.67 59.1309 139.547 59.372 139.547C59.3988 139.547 59.7338 138.981 60.0955 138.293C62.0651 134.637 65.2137 131.547 67.7728 130.765C70.0505 130.063 73.2526 131.116 74.4987 132.964C74.847 133.49 74.8738 133.638 74.8336 134.421C74.7667 135.621 74.2843 136.579 73.1991 137.659C71.2429 139.588 68.5231 140.923 65.5486 141.396C64.8117 141.503 64.1284 141.625 64.0346 141.652C63.6327 141.773 62.1723 145.726 61.7301 147.912C61.3282 149.881 61.3684 151.891 61.8105 153.335C61.9981 153.955 62.2527 154.576 62.3866 154.711C62.5608 154.913 62.5608 154.954 62.4 154.873C62.2929 154.805 62.4804 155.035 62.8288 155.372C63.8069 156.33 64.3964 156.586 65.8434 156.653C67.2502 156.721 68.0005 156.505 70.305 155.358C72.1004 154.468 73.6948 153.119 76.9908 149.706L79.8312 146.765L80.0322 144.876C80.8897 136.539 82.8726 130.805 85.5121 129.052C86.2892 128.539 87.3744 128.471 88.0979 128.903ZM130.289 131.885C130.303 132.208 130.316 132.492 130.316 132.532C130.329 132.573 130.463 132.424 130.637 132.222C130.986 131.777 131.401 131.844 131.401 132.33C131.401 132.573 131.455 132.627 131.656 132.573C131.83 132.532 132.004 132.64 132.218 132.964C132.393 133.207 132.58 133.449 132.647 133.49C132.714 133.53 132.741 134.097 132.714 134.731C132.674 135.81 132.781 136.134 132.915 135.365C132.969 135.068 132.969 135.068 132.982 135.433C133.009 135.999 132.54 137.659 131.991 138.967C131.817 139.399 131.535 139.574 131.535 139.264C131.535 139.156 131.482 139.156 131.348 139.264C131.2 139.399 131.133 139.372 131.066 139.156C131.013 138.954 130.865 138.873 130.584 138.873C130.37 138.873 130.195 138.819 130.195 138.751C130.195 138.684 130.035 138.603 129.834 138.576C129.592 138.549 129.351 138.347 129.043 137.901C128.427 137.025 128.266 136.269 128.36 134.718C128.467 132.708 129.11 131.318 129.927 131.318C130.249 131.318 130.276 131.372 130.289 131.885ZM123.268 134.043C123.201 134.138 123.014 134.394 122.853 134.61C122.692 134.826 122.558 134.933 122.558 134.853C122.558 134.704 123.201 133.881 123.322 133.881C123.362 133.881 123.335 133.962 123.268 134.043ZM122.089 135.918C121.915 136.242 121.754 136.458 121.754 136.39C121.754 136.161 122.344 135.041 122.384 135.176C122.411 135.257 122.277 135.595 122.089 135.918ZM124.769 135.648C124.916 135.864 124.715 136.714 124.528 136.674C124.434 136.66 124.38 136.795 124.394 137.038C124.421 137.321 124.38 137.389 124.273 137.281C124.166 137.173 124.18 136.917 124.313 136.323C124.488 135.514 124.595 135.352 124.769 135.648ZM123.684 136.377C123.63 136.485 123.577 136.579 123.55 136.579C123.523 136.579 123.496 136.485 123.496 136.377C123.496 136.269 123.55 136.175 123.63 136.175C123.697 136.175 123.724 136.269 123.684 136.377ZM121.433 137.416C120.857 138.954 120.803 139.048 120.723 138.967C120.642 138.873 120.776 138.468 121.299 137.281C121.741 136.31 121.821 136.404 121.433 137.416ZM123.389 137.186C123.335 137.537 123.094 137.793 123.094 137.524C123.094 137.362 123.335 136.849 123.416 136.849C123.443 136.849 123.429 136.998 123.389 137.186ZM124.072 137.659C124.032 137.807 123.938 137.969 123.858 138.023C123.764 138.077 123.751 138.023 123.804 137.874C123.858 137.74 123.898 137.578 123.898 137.51C123.898 137.443 123.952 137.389 124.019 137.389C124.086 137.389 124.113 137.51 124.072 137.659ZM122.478 139.304C121.728 140.802 120.2 143.419 119.986 143.541C119.745 143.702 119.932 143.311 120.723 142.07C121.138 141.436 121.808 140.208 122.237 139.345C122.666 138.482 123.041 137.834 123.067 137.901C123.094 137.982 122.826 138.603 122.478 139.304ZM123.804 138.468C123.845 138.616 123.818 138.711 123.751 138.657C123.684 138.616 123.63 138.684 123.63 138.792C123.63 138.913 123.577 139.008 123.496 139.008C123.335 139.008 123.335 138.981 123.496 138.549C123.644 138.131 123.711 138.117 123.804 138.468ZM120.562 139.777C120.428 140.006 120.428 139.992 120.415 139.736C120.415 139.426 120.589 139.183 120.656 139.399C120.683 139.48 120.642 139.642 120.562 139.777ZM87.8032 140.613C87.5352 141.139 87.294 141.571 87.2539 141.571C87.2137 141.571 87.4146 141.112 87.6826 140.559C87.9506 140.006 88.2051 139.574 88.2319 139.601C88.2587 139.628 88.0577 140.087 87.8032 140.613ZM89.8263 142.232C89.5852 142.421 89.1832 142.812 88.9018 143.109C88.6339 143.392 88.3391 143.594 88.2319 143.568C88.1247 143.527 88.2721 143.311 88.6607 142.933C88.9956 142.623 89.4378 142.191 89.6655 141.976C89.9067 141.733 90.0943 141.652 90.1479 141.733C90.2015 141.814 90.0541 142.043 89.8263 142.232ZM86.9323 142.151C86.7983 142.272 86.7849 142.259 86.8653 142.07C86.9055 141.935 86.9859 141.868 87.0261 141.908C87.0663 141.949 87.0261 142.057 86.9323 142.151ZM143.285 145.375C143.245 145.483 143.205 145.443 143.205 145.294C143.192 145.146 143.232 145.065 143.272 145.119C143.312 145.159 143.326 145.281 143.285 145.375ZM143.017 148.478C142.991 148.653 142.964 148.519 142.964 148.181C142.964 147.844 142.991 147.709 143.017 147.871C143.044 148.046 143.044 148.316 143.017 148.478ZM143.058 149.139C143.058 149.207 143.004 149.261 142.951 149.261C142.884 149.261 142.83 149.166 142.83 149.058C142.83 148.95 142.884 148.896 142.951 148.937C143.004 148.977 143.058 149.058 143.058 149.139ZM86.8251 149.868C86.6241 150.272 86.4366 150.583 86.4098 150.556C86.3562 150.488 87.0261 149.126 87.1199 149.126C87.1601 149.126 87.0261 149.463 86.8251 149.868ZM152.798 149.76C152.758 149.895 152.731 149.814 152.731 149.598C152.731 149.368 152.758 149.274 152.798 149.355C152.825 149.449 152.825 149.638 152.798 149.76ZM126.323 149.706C126.189 149.827 126.176 149.814 126.256 149.625C126.296 149.49 126.377 149.422 126.417 149.463C126.457 149.503 126.417 149.611 126.323 149.706ZM125.908 150.205C125.827 150.353 125.734 150.475 125.694 150.475C125.667 150.475 125.694 150.353 125.774 150.205C125.854 150.057 125.948 149.935 125.988 149.935C126.015 149.935 125.988 150.057 125.908 150.205ZM142.924 150.367C142.924 150.677 142.884 150.758 142.803 150.623C142.696 150.461 142.75 149.935 142.87 149.935C142.897 149.935 142.924 150.137 142.924 150.367ZM146.273 151.554C146.193 151.702 146.099 151.824 146.059 151.824C146.032 151.824 146.059 151.702 146.139 151.554C146.22 151.406 146.313 151.284 146.354 151.284C146.38 151.284 146.354 151.406 146.273 151.554ZM144.974 154.185C144.933 154.306 144.866 154.374 144.84 154.333C144.799 154.293 144.813 154.212 144.866 154.131C144.987 153.915 145.067 153.955 144.974 154.185ZM121.312 157.787C121.285 157.962 121.259 157.854 121.259 157.557C121.245 157.261 121.272 157.126 121.312 157.247C121.339 157.382 121.339 157.625 121.312 157.787ZM121.178 158.933C121.138 159.068 121.111 158.987 121.111 158.772C121.111 158.542 121.138 158.448 121.178 158.529C121.205 158.623 121.205 158.812 121.178 158.933ZM121.044 159.675C121.004 159.77 120.977 159.702 120.977 159.513C120.977 159.325 121.004 159.257 121.044 159.338C121.071 159.433 121.071 159.594 121.044 159.675ZM69.8227 162.562C69.9433 162.67 70.0371 162.832 70.0371 162.913C70.0371 162.981 69.6083 164.883 69.0992 167.149C68.5767 169.402 68.1211 171.628 68.0809 172.087C67.9469 173.422 67.4646 173.908 66.8885 173.274C66.5535 172.91 66.6339 172.37 67.679 167.878C68.1479 165.841 68.5633 163.911 68.6168 163.601C68.7374 162.738 68.9652 162.347 69.3136 162.347C69.4743 162.347 69.7155 162.441 69.8227 162.562ZM73.1455 163.655C73.6948 164.154 73.1723 165.18 72.3684 165.18C71.7252 165.18 71.6181 164.046 72.221 163.628C72.5961 163.372 72.8373 163.372 73.1455 163.655ZM116.636 164.276C116.797 164.613 116.784 164.802 116.556 165.76C116.395 166.367 116.301 166.879 116.328 166.906C116.355 166.947 116.944 166.852 117.641 166.731C119.048 166.461 119.343 166.502 119.343 166.974C119.343 167.5 118.968 167.702 117.373 168.026L115.873 168.35L115.658 169.254C114.935 172.505 116.261 173.058 118.123 170.266C118.552 169.632 118.887 169.47 119.021 169.834C119.061 169.942 118.874 170.522 118.592 171.129C117.936 172.545 117.239 173.166 116.221 173.234C115.363 173.301 114.801 172.991 114.466 172.262C114.265 171.844 114.238 171.534 114.292 170.522C114.345 169.847 114.412 169.105 114.452 168.89C114.519 168.525 114.479 168.458 114.091 168.282C113.26 167.905 113.488 167.203 114.452 167.203H115.028L115.243 166.326C115.363 165.854 115.457 165.247 115.457 164.991C115.457 164.734 115.524 164.357 115.618 164.168C115.832 163.682 116.395 163.75 116.636 164.276ZM158.305 164.276C158.466 164.613 158.452 164.802 158.225 165.76C158.064 166.367 157.97 166.879 157.997 166.906C158.024 166.947 158.613 166.852 159.31 166.731C160.717 166.461 161.011 166.502 161.011 166.974C161.011 167.5 160.636 167.702 159.042 168.026L157.541 168.35L157.327 169.254C156.603 172.505 157.93 173.058 159.792 170.266C160.221 169.632 160.556 169.47 160.69 169.834C160.73 169.942 160.542 170.522 160.261 171.129C159.605 172.545 158.908 173.166 157.89 173.234C157.032 173.301 156.469 172.991 156.134 172.262C155.933 171.844 155.907 171.534 155.96 170.522C156.014 169.847 156.081 169.105 156.121 168.89C156.188 168.525 156.148 168.458 155.759 168.282C154.929 167.905 155.156 167.203 156.121 167.203H156.697L156.912 166.326C157.032 165.854 157.126 165.247 157.126 164.991C157.126 164.734 157.193 164.357 157.287 164.168C157.501 163.682 158.064 163.75 158.305 164.276ZM61.7301 166.191C61.8909 166.394 61.8775 166.583 61.6497 167.136C61.5694 167.352 61.6631 167.311 62.0919 166.96C63.2173 166.07 64.249 165.881 64.9055 166.448C65.2539 166.758 65.2807 166.839 65.2673 167.77C65.2539 168.593 65.1199 169.146 64.4634 171.115L63.6729 173.476H63.2039H62.735L62.7618 172.802C62.7752 172.411 63.0432 171.426 63.3781 170.441C64.1016 168.377 64.2088 167.878 63.9676 167.554C63.8069 167.338 63.7265 167.325 63.3111 167.46C62.8556 167.608 61.556 168.633 61.0334 169.254C60.7655 169.551 60.3501 170.9 60.1357 172.114C59.9616 173.058 59.7874 173.301 59.3318 173.247C59.0237 173.207 58.9835 173.139 58.9433 172.64C58.8763 171.75 60.3233 166.758 60.819 166.164C61.0066 165.922 61.5292 165.949 61.7301 166.191ZM76.4682 166.191C76.629 166.394 76.6156 166.583 76.3879 167.136C76.3075 167.352 76.4012 167.311 76.83 166.96C77.9554 166.07 78.9871 165.881 79.6436 166.448C79.992 166.758 80.0188 166.839 80.0054 167.77C79.992 168.593 79.858 169.146 79.2015 171.115L78.411 173.476H77.942H77.4731L77.4999 172.802C77.5133 172.411 77.7813 171.426 78.1162 170.441C78.8397 168.377 78.9469 167.878 78.7057 167.554C78.545 167.338 78.4646 167.325 78.0492 167.46C77.5937 167.608 76.2941 168.633 75.7715 169.254C75.5036 169.551 75.0882 170.9 74.8738 172.114C74.6997 173.058 74.5255 173.301 74.0699 173.247C73.7618 173.207 73.7216 173.139 73.6814 172.64C73.6144 171.75 75.0614 166.758 75.5572 166.164C75.7447 165.922 76.2673 165.949 76.4682 166.191ZM133.357 166.326C133.572 166.65 133.558 166.771 133.223 168.458C132.982 169.672 132.875 170.67 132.875 171.601C132.875 173.018 132.781 173.274 132.272 173.274C131.83 173.274 131.669 173.004 131.669 172.303C131.669 171.952 131.616 171.655 131.535 171.655C131.468 171.655 131.401 171.709 131.401 171.777C131.401 171.844 131.12 172.208 130.785 172.586C129.78 173.719 129.123 173.922 128.32 173.368C127.717 172.964 127.382 172.276 127.382 171.453C127.395 170.508 128.333 166.798 128.601 166.623C128.896 166.434 129.485 166.61 129.579 166.906C129.633 167.041 129.418 168.053 129.11 169.159C128.547 171.237 128.507 171.857 128.936 172.208C129.458 172.64 130.852 171.264 131.415 169.766C131.575 169.362 131.817 168.417 131.977 167.675C132.125 166.933 132.312 166.245 132.379 166.151C132.594 165.868 133.116 165.962 133.357 166.326ZM150.159 166.191C150.32 166.394 150.306 166.583 150.078 167.136C149.998 167.352 150.092 167.311 150.521 166.96C151.646 166.07 152.678 165.881 153.334 166.448C153.683 166.758 153.709 166.839 153.696 167.77C153.683 168.593 153.549 169.146 152.892 171.115L152.102 173.476H151.633H151.164L151.19 172.802C151.204 172.411 151.472 171.426 151.807 170.441C152.53 168.377 152.637 167.878 152.396 167.554C152.236 167.338 152.155 167.325 151.74 167.46C151.284 167.608 149.985 168.633 149.462 169.254C149.194 169.551 148.779 170.9 148.564 172.114C148.39 173.058 148.216 173.301 147.76 173.247C147.452 173.207 147.412 173.139 147.372 172.64C147.305 171.75 148.752 166.758 149.248 166.164C149.435 165.922 149.958 165.949 150.159 166.191ZM56.9603 166.529C58.327 167.743 57.992 170.306 56.2234 172.249C55.4195 173.139 54.6424 173.544 53.7715 173.544C51.7618 173.544 51.1053 171.682 52.2709 169.294C52.7935 168.215 53.9591 166.947 54.7362 166.61C55.0042 166.475 55.3258 166.326 55.4329 166.259C55.8617 166.003 56.4914 166.11 56.9603 166.529ZM111.947 166.34C112.134 166.461 112.242 166.691 112.242 166.933C112.242 167.743 111.974 167.932 111.371 167.527C111.103 167.352 110.969 167.338 110.594 167.46C109.977 167.662 109.08 168.458 109.214 168.66C109.267 168.755 109.723 169.038 110.205 169.281C111.424 169.901 111.625 170.144 111.545 170.913C111.505 171.237 111.371 171.669 111.25 171.857C110.821 172.519 109.307 173.274 108.423 173.274C107.673 173.274 106.949 172.424 107.432 172.114C107.525 172.06 107.927 172.006 108.356 171.992C108.771 171.979 109.401 171.83 109.75 171.682C110.674 171.264 110.58 170.927 109.374 170.293C108.437 169.807 107.954 169.24 107.954 168.62C107.954 168.013 108.959 166.92 110.031 166.353C110.553 166.07 111.558 166.07 111.947 166.34ZM96.9006 167.041L97.048 167.621L97.3696 167.257C97.8787 166.718 98.4146 166.488 99.0175 166.569C99.6339 166.65 100.13 167.082 100.25 167.621C100.451 168.539 99.6473 168.876 99.0711 168.121C98.7496 167.716 98.7094 167.702 98.3208 167.878C98.0931 167.972 97.6375 168.35 97.316 168.714C96.78 169.308 96.6862 169.51 96.3781 170.846C96.1905 171.669 96.0297 172.505 96.0297 172.707C96.0297 173.166 95.8154 173.409 95.4 173.409C94.7971 173.409 94.7837 173.045 95.2928 170.36C95.5474 168.97 95.7618 167.635 95.7618 167.379C95.7618 166.691 95.9761 166.367 96.4049 166.421C96.713 166.448 96.7934 166.556 96.9006 167.041ZM136.961 167.041L137.109 167.621L137.43 167.257C137.94 166.718 138.475 166.488 139.078 166.569C139.695 166.65 140.19 167.082 140.311 167.621C140.512 168.539 139.708 168.876 139.132 168.121C138.81 167.716 138.77 167.702 138.382 167.878C138.154 167.972 137.698 168.35 137.377 168.714C136.841 169.308 136.747 169.51 136.439 170.846C136.251 171.669 136.091 172.505 136.091 172.707C136.091 173.166 135.876 173.409 135.461 173.409C134.858 173.409 134.845 173.045 135.354 170.36C135.608 168.97 135.823 167.635 135.823 167.379C135.823 166.691 136.037 166.367 136.466 166.421C136.774 166.448 136.854 166.556 136.961 167.041ZM125.881 166.691C126.122 166.933 126.082 167.284 125.627 169.186C125.399 170.131 125.131 171.399 125.024 171.979C124.836 173.085 124.715 173.274 124.206 173.274C123.818 173.274 123.711 173.072 123.751 172.357C123.778 171.817 123.764 171.777 123.51 171.911C123.362 171.992 123.201 172.127 123.161 172.195C122.974 172.505 122.009 173.004 121.607 173.004C121.111 173.004 120.482 172.397 120.348 171.79C120.24 171.291 120.562 169.982 121.031 169.065C121.446 168.242 122.532 167.055 123.134 166.745C123.657 166.488 125.64 166.448 125.881 166.691ZM146.112 166.691C146.354 166.933 146.313 167.284 145.858 169.186C145.63 170.131 145.362 171.399 145.255 171.979C145.067 173.085 144.947 173.274 144.438 173.274C144.049 173.274 143.942 173.072 143.982 172.357C144.009 171.817 143.996 171.777 143.741 171.911C143.594 171.992 143.433 172.127 143.393 172.195C143.205 172.505 142.24 173.004 141.838 173.004C141.343 173.004 140.713 172.397 140.579 171.79C140.472 171.291 140.793 169.982 141.262 169.065C141.678 168.242 142.763 167.055 143.366 166.745C143.888 166.488 145.871 166.448 146.112 166.691ZM72.3952 167.001C72.4755 167.19 71.2295 172.64 70.9749 173.234C70.908 173.409 70.7472 173.544 70.6266 173.544C70.305 173.544 69.9031 173.153 69.9031 172.842C69.9031 172.424 71.2429 167.163 71.4037 166.974C71.5913 166.731 72.3014 166.758 72.3952 167.001ZM86.1016 167.149C86.4634 167.446 86.5169 167.581 86.5169 168.134C86.5169 169.375 85.4585 170.239 83.5425 170.589C82.8592 170.711 82.618 170.819 82.5511 171.008C82.3233 171.75 82.9932 172.303 83.9445 172.154C84.2124 172.1 84.8556 171.857 85.3513 171.588C86.3428 171.075 86.6241 171.021 86.7313 171.304C86.8787 171.696 86.3964 172.276 85.5523 172.748C84.7752 173.166 84.6144 173.207 83.5425 173.207C81.8008 173.207 81.3988 172.829 81.238 171.021C81.1576 170.077 81.171 170.036 81.5596 169.605C81.774 169.362 81.9615 169.119 81.9615 169.078C81.9615 169.024 82.2027 168.674 82.4975 168.296C83.5827 166.906 85.2173 166.394 86.1016 167.149ZM105.529 167.149C105.891 167.446 105.944 167.581 105.944 168.134C105.944 169.375 104.886 170.239 102.97 170.589C102.287 170.711 102.046 170.819 101.979 171.008C101.751 171.75 102.421 172.303 103.372 172.154C103.64 172.1 104.283 171.857 104.779 171.588C105.77 171.075 106.052 171.021 106.159 171.304C106.306 171.696 105.824 172.276 104.98 172.748C104.203 173.166 104.042 173.207 102.97 173.207C101.228 173.207 100.826 172.829 100.666 171.021C100.585 170.077 100.599 170.036 100.987 169.605C101.201 169.362 101.389 169.119 101.389 169.078C101.389 169.024 101.63 168.674 101.925 168.296C103.01 166.906 104.645 166.394 105.529 167.149ZM106.748 185.024V185.969L107.097 185.699C107.525 185.362 108.303 185.335 108.651 185.645C108.852 185.834 108.892 186.077 108.892 187.466V189.058H108.222H107.552V187.574C107.552 186.319 107.525 186.09 107.338 186.09C107.003 186.09 106.748 186.94 106.748 188.046V189.058H106.078H105.409V186.643V184.215L105.918 184.161C106.186 184.134 106.494 184.107 106.588 184.094C106.695 184.067 106.748 184.336 106.748 185.024ZM118.74 184.539C118.74 184.903 118.7 184.943 118.284 184.943C117.735 184.943 117.454 184.606 117.735 184.269C117.842 184.134 118.07 184.067 118.324 184.094C118.686 184.134 118.74 184.188 118.74 184.539ZM115.162 184.363C115.404 184.606 115.35 184.97 115.069 185.051C114.895 185.092 114.787 185.038 114.747 184.862C114.667 184.566 114.385 184.512 114.385 184.795C114.385 185.2 114.56 185.416 114.868 185.416C115.069 185.416 115.189 185.497 115.189 185.618C115.189 185.726 115.069 185.82 114.921 185.82C114.667 185.82 114.653 185.915 114.653 187.439V189.058H113.983H113.314V187.439C113.314 186.09 113.287 185.82 113.113 185.82C113.005 185.82 112.912 185.726 112.912 185.618C112.912 185.51 113.005 185.416 113.113 185.416C113.233 185.416 113.314 185.294 113.314 185.092C113.314 184.417 114.68 183.878 115.162 184.363ZM118.914 187.21L118.954 189.058H118.271H117.601V187.25V185.429L118.043 185.375C118.914 185.267 118.874 185.186 118.914 187.21ZM121.044 185.551C121.111 185.793 121.138 185.793 121.393 185.618C121.768 185.348 122.545 185.362 122.853 185.645C123.054 185.834 123.094 186.077 123.094 187.466V189.058H122.424H121.754V187.655C121.754 186.198 121.62 185.807 121.259 186.292C121.138 186.468 121.085 186.967 121.085 187.803V189.058H120.415H119.745V187.25V185.429L120.12 185.375C120.87 185.267 120.977 185.281 121.044 185.551ZM127.221 186.927C127.234 187.803 127.301 188.518 127.355 188.518C127.757 188.505 127.851 188.208 127.891 186.859L127.944 185.443L128.427 185.362C128.708 185.321 129.003 185.281 129.097 185.281C129.217 185.281 129.257 185.753 129.257 187.169V189.058H128.588C128.065 189.058 127.918 189.018 127.918 188.842C127.918 188.64 127.891 188.64 127.583 188.842C127.167 189.112 126.39 189.126 126.122 188.842C125.948 188.68 125.908 188.303 125.908 187.034V185.429L126.283 185.375C127.194 185.227 127.181 185.186 127.221 186.927ZM86.7179 186.252C86.8385 186.724 86.9859 187.156 87.0261 187.237C87.0797 187.304 87.2003 186.94 87.3208 186.427L87.5218 185.483H87.9908C88.4329 185.483 88.4463 185.497 88.6473 186.319C88.7679 186.778 88.9018 187.183 88.942 187.223C88.9822 187.264 89.143 186.873 89.3172 186.36L89.6119 185.416H90.456H91.3001L91.5413 186.252C91.6619 186.724 91.8093 187.156 91.8495 187.237C91.9031 187.304 92.0236 186.94 92.1442 186.427L92.3452 185.483H92.8141C93.2563 185.483 93.2697 185.497 93.4707 186.319C93.5912 186.778 93.7252 187.183 93.7654 187.223C93.8056 187.264 93.9664 186.873 94.1406 186.36L94.4353 185.416H95.2124H95.9895L96.2307 186.252C96.3513 186.724 96.4987 187.156 96.5389 187.237C96.5925 187.304 96.713 186.94 96.8336 186.427L97.0346 185.483H97.5035C97.9457 185.483 97.9591 185.497 98.16 186.319C98.2806 186.778 98.4146 187.183 98.4548 187.223C98.495 187.264 98.6558 186.873 98.83 186.36C99.0175 185.766 99.2051 185.416 99.3257 185.416C99.4329 185.416 99.5133 185.456 99.5133 185.51C99.5133 185.564 99.2587 186.387 98.9505 187.331L98.3878 189.058H97.9591C97.5571 189.058 97.5169 189.018 97.3696 188.343C97.1284 187.318 97.0748 187.304 96.847 188.195C96.6326 188.964 96.6192 188.991 96.1905 188.991H95.7484L95.2392 187.439L94.7301 185.888L94.221 187.466C93.6984 189.058 93.6984 189.058 93.2697 189.058C92.8677 189.058 92.8275 189.018 92.6802 188.343C92.439 187.318 92.3854 187.304 92.1576 188.195C91.9432 188.964 91.9299 188.991 91.5011 188.991H91.059L90.5766 187.507C90.3221 186.684 90.0675 185.982 90.0139 185.928C89.9603 185.861 89.6789 186.549 89.3976 187.439L88.875 189.058H88.4463C88.0444 189.058 88.0042 189.018 87.8568 188.343C87.6156 187.318 87.562 187.304 87.3342 188.195C87.1199 188.964 87.1065 188.991 86.6777 188.991H86.2356L85.6461 187.196L85.0699 185.416H85.78H86.4767L86.7179 186.252ZM104.672 185.753C105.074 186.144 105.1 186.441 104.752 186.63C104.377 186.819 104.363 186.805 104.31 186.346C104.283 186.104 104.162 185.847 104.028 185.766C103.828 185.645 103.734 185.672 103.519 185.942C103.318 186.185 103.265 186.468 103.265 187.304C103.265 188.424 103.426 188.788 103.935 188.788C104.283 188.788 104.658 188.195 104.578 187.776C104.511 187.426 104.658 187.345 104.993 187.561C105.261 187.736 105.06 188.464 104.645 188.788C104.189 189.153 103.091 189.153 102.501 188.788C101.818 188.37 101.617 187.358 102.046 186.414C102.488 185.443 103.988 185.051 104.672 185.753ZM111.96 185.604C112.362 185.82 112.577 186.212 112.711 186.954L112.804 187.439H111.853H110.902V187.817C110.902 188.653 111.974 188.95 112.161 188.168C112.268 187.749 112.737 187.763 112.67 188.181C112.59 188.707 112.014 189.058 111.264 189.058C110.339 189.058 109.763 188.707 109.575 188.019C109.374 187.331 109.388 187.129 109.656 186.481C110.018 185.551 111.063 185.146 111.96 185.604ZM132.513 185.564C132.969 185.807 133.009 185.942 133.009 187.331C133.009 188.451 133.036 188.653 133.223 188.653C133.344 188.653 133.411 188.734 133.384 188.815C133.304 189.045 132.285 189.112 131.924 188.923C131.723 188.802 131.602 188.802 131.495 188.91C131.415 188.991 131.106 189.058 130.812 189.058C129.338 189.058 129.284 187.318 130.731 186.886C131.415 186.67 131.776 186.292 131.589 185.982C131.267 185.47 130.356 185.807 130.53 186.373C130.584 186.508 130.557 186.63 130.477 186.63C129.847 186.63 129.713 185.942 130.303 185.631C130.731 185.389 132.098 185.348 132.513 185.564ZM101.108 188.141C101.268 188.599 101.081 188.991 100.666 189.031C100.223 189.085 99.9152 188.856 99.9152 188.464C99.9152 188.06 100.156 187.844 100.612 187.844C100.893 187.844 101.027 187.925 101.108 188.141ZM116.784 188.141C116.944 188.599 116.757 188.991 116.342 189.031C115.899 189.085 115.591 188.856 115.591 188.464C115.591 188.06 115.832 187.844 116.288 187.844C116.569 187.844 116.703 187.925 116.784 188.141ZM124.957 188.141C125.117 188.599 124.93 188.991 124.514 189.031C124.072 189.085 123.764 188.856 123.764 188.464C123.764 188.06 124.005 187.844 124.461 187.844C124.742 187.844 124.876 187.925 124.957 188.141Z" fill="#050505"/>
<path d="M149.784 47.2305C149.422 47.3789 149.074 48.4042 148.806 50.131C148.658 51.1158 148.417 52.7077 148.27 53.6791C148.122 54.6369 147.908 55.8511 147.801 56.3772C147.077 59.7634 146.943 60.5323 146.943 61.3957C146.943 62.2726 146.97 62.3806 147.292 62.6369C148.605 63.6757 150.614 61.706 151.767 58.2119C153.16 54.0028 152.892 48.9034 151.191 47.4599C150.829 47.1496 150.213 47.0551 149.784 47.2305Z" fill="#020202"/>
<path d="M86.3162 129.416C86.276 129.497 86.1286 129.564 86.008 129.564C85.874 129.564 85.6731 129.726 85.5391 129.928C85.2845 130.347 84.5476 131.223 84.7084 130.927C84.7888 130.805 84.762 130.765 84.6682 130.832C84.5744 130.886 84.5074 131.075 84.5074 131.264C84.5074 131.453 84.4136 131.628 84.3064 131.669C84.1993 131.723 84.1055 131.844 84.1055 131.965C84.1055 132.114 84.293 131.965 84.6146 131.601C84.8826 131.264 85.4319 130.643 85.8338 130.212C86.2358 129.78 86.5306 129.389 86.4904 129.348C86.4502 129.308 86.3698 129.335 86.3162 129.416Z" fill="#020202"/>
<path d="M51.9493 130.306C51.8689 130.508 51.8421 130.711 51.8689 130.751C51.9091 130.792 52.0029 130.643 52.0833 130.441C52.1637 130.238 52.1905 130.036 52.1637 129.996C52.1235 129.955 52.0297 130.104 51.9493 130.306Z" fill="#020202"/>
<path d="M86.3158 130.846C86.0344 131.129 85.043 132.95 85.043 133.153C85.043 133.22 85.4047 132.667 85.8469 131.938C86.289 131.196 86.6374 130.589 86.624 130.576C86.5972 130.576 86.4632 130.697 86.3158 130.846Z" fill="#020202"/>
<path d="M87.3073 131.277C86.825 131.912 86.3962 132.748 86.3828 133.058C86.3828 133.099 86.5972 132.761 86.8652 132.316C87.1197 131.885 87.5217 131.291 87.736 131.008C87.9504 130.738 88.0844 130.508 88.0174 130.508C87.9504 130.508 87.6289 130.859 87.3073 131.277Z" fill="#020202"/>
<path d="M87.7898 131.48C87.3879 131.952 86.9859 132.775 86.4634 134.219C86.0748 135.298 85.8739 136.229 86.1016 135.905C86.316 135.595 86.2892 135.824 85.7801 138.212C85.5255 139.426 85.3111 140.451 85.3111 140.492C85.3111 140.532 85.2576 140.478 85.1906 140.384C85.1102 140.249 85.0432 140.37 84.9494 140.748C84.8422 141.153 84.8422 141.355 84.9628 141.517C85.204 141.841 85.271 141.733 86.9993 138.333C88.2052 135.945 88.7545 133.477 88.4463 131.871C88.366 131.467 88.3392 131.453 88.1114 131.669C87.8032 131.952 87.7764 131.763 88.0712 131.345C88.3794 130.9 88.2052 130.981 87.7898 131.48ZM87.6157 132.424C87.5219 132.519 87.4549 132.532 87.4549 132.451C87.4549 132.263 87.6157 132.101 87.7094 132.195C87.7362 132.236 87.696 132.343 87.6157 132.424ZM86.9859 133.895C86.8653 134.124 86.7314 134.273 86.6912 134.232C86.6108 134.151 86.9993 133.477 87.1199 133.477C87.1601 133.477 87.0931 133.666 86.9859 133.895ZM86.785 134.542C86.785 134.623 86.7314 134.718 86.651 134.758C86.584 134.799 86.517 134.745 86.517 134.637C86.517 134.515 86.584 134.421 86.651 134.421C86.7314 134.421 86.785 134.475 86.785 134.542ZM86.517 135.419C86.517 135.46 86.4634 135.527 86.383 135.568C86.316 135.608 86.249 135.581 86.249 135.514C86.249 135.433 86.316 135.365 86.383 135.365C86.4634 135.365 86.517 135.392 86.517 135.419Z" fill="#020202"/>
<path d="M89.0088 131.966C88.9686 132.047 89.0222 132.141 89.1428 132.181C89.4509 132.303 89.5179 132.208 89.2768 132.006C89.1696 131.912 89.049 131.898 89.0088 131.966Z" fill="#020202"/>
<path d="M120.12 133.49C119.504 134.097 119.102 134.555 119.209 134.502C119.316 134.448 119.289 134.502 119.142 134.623C118.995 134.744 118.887 134.906 118.914 134.974C118.928 135.041 118.874 135.095 118.794 135.095C118.727 135.095 118.7 135.149 118.74 135.23C118.78 135.297 118.753 135.365 118.673 135.365C118.579 135.365 118.539 135.446 118.579 135.554C118.619 135.662 118.539 135.905 118.392 136.08C118.124 136.444 118.07 136.579 118.244 136.579C118.298 136.579 118.418 136.39 118.512 136.174C118.619 135.945 118.78 135.77 118.874 135.77C118.968 135.77 119.035 135.689 119.021 135.581C119.008 135.351 119.798 134.272 120.736 133.247C121.808 132.087 121.326 132.262 120.12 133.49Z" fill="#020202"/>
<path d="M89.4379 132.91C89.3977 133.031 89.4111 133.261 89.4647 133.409C89.5451 133.612 89.5719 133.544 89.5719 133.166C89.5719 132.627 89.5317 132.532 89.4379 132.91Z" fill="#020202"/>
<path d="M71.0418 133.396C70.2111 133.773 68.6435 135.055 67.4912 136.269C66.5667 137.241 64.8518 139.628 64.9723 139.763C65.0795 139.871 67.3304 139.089 68.1879 138.657C69.8761 137.794 71.2025 136.633 71.7653 135.514C72.0868 134.893 72.1404 133.666 71.8859 133.301C71.7251 133.085 71.6581 133.099 71.0418 133.396Z" fill="#020202"/>
<path d="M122.693 133.45C122.505 133.652 122.264 133.949 122.143 134.111C122.036 134.286 121.889 134.38 121.835 134.327C121.781 134.273 121.781 134.34 121.835 134.475C121.902 134.664 121.889 134.704 121.768 134.637C121.688 134.583 121.634 134.583 121.647 134.65C121.674 134.718 121.54 135.082 121.366 135.46C121.138 135.972 120.991 136.134 120.83 136.08C120.669 136.026 120.656 136.053 120.79 136.134C120.924 136.229 120.884 136.431 120.616 137.025C120.107 138.212 120.334 137.929 120.924 136.674C121.513 135.419 122.746 133.504 123.041 133.382C123.228 133.315 123.309 133.058 123.135 133.085C123.068 133.099 122.88 133.261 122.693 133.45Z" fill="#020202"/>
<path d="M89.3306 134.07C89.3306 134.367 89.3708 134.434 89.4779 134.326C89.5851 134.218 89.5851 134.11 89.4779 133.921C89.3574 133.706 89.344 133.733 89.3306 134.07Z" fill="#020202"/>
<path d="M124.515 133.976C124.434 134.165 124.448 134.178 124.582 134.057C124.675 133.962 124.716 133.854 124.675 133.814C124.635 133.773 124.555 133.841 124.515 133.976Z" fill="#020202"/>
<path d="M120.28 135.257C119.544 136.391 119.383 136.714 119.53 136.714C119.557 136.714 119.785 136.62 120.026 136.512C120.401 136.35 120.428 136.323 120.173 136.31H119.879L120.16 135.73C120.321 135.419 120.629 134.907 120.843 134.583C121.058 134.273 121.192 134.016 121.151 134.016C121.111 134.016 120.709 134.569 120.28 135.257Z" fill="#020202"/>
<path d="M74.6057 134.637C74.6057 134.785 74.6459 134.826 74.686 134.718C74.7262 134.623 74.7128 134.502 74.6726 134.462C74.6325 134.408 74.5923 134.488 74.6057 134.637Z" fill="#020202"/>
<path d="M72.422 135.352C72.3014 135.729 72.2612 136.013 72.3148 135.972C72.4622 135.878 72.7569 135.001 72.6899 134.812C72.6632 134.731 72.5426 134.974 72.422 135.352Z" fill="#020202"/>
<path d="M74.4718 135.122C74.4718 135.244 74.4182 135.46 74.3781 135.595C74.3111 135.824 74.3111 135.824 74.4584 135.595C74.5388 135.46 74.579 135.257 74.5522 135.122C74.4986 134.92 74.4852 134.92 74.4718 135.122Z" fill="#020202"/>
<path d="M88.4595 135.379C88.4059 135.46 88.4327 135.595 88.5131 135.675C88.6203 135.783 88.6605 135.756 88.6605 135.595C88.6605 135.298 88.8749 135.298 89.0356 135.581C89.1294 135.743 89.183 135.756 89.2634 135.648C89.317 135.554 89.317 135.446 89.2768 135.392C89.116 135.244 88.5533 135.217 88.4595 135.379Z" fill="#020202"/>
<path d="M88.1515 136.242C88.0577 136.431 87.9907 136.647 87.9907 136.728C87.9907 136.998 86.9725 139.143 85.9408 141.004C85.3513 142.07 84.9091 142.974 84.9493 143.001C85.0163 143.068 86.9189 139.925 86.9189 139.75C86.9189 139.709 87.1868 139.129 87.495 138.482C88.0309 137.389 88.4731 136.08 88.3525 135.959C88.3257 135.932 88.2319 136.053 88.1515 136.242Z" fill="#020202"/>
<path d="M83.9041 136.188C83.7433 136.444 83.9711 136.498 84.1989 136.269C84.4133 136.053 84.4133 136.04 84.2123 136.04C84.0917 136.04 83.9443 136.107 83.9041 136.188Z" fill="#020202"/>
<path d="M85.7129 136.795C85.7129 136.984 85.7665 137.106 85.8469 137.052C85.9273 137.011 85.9809 136.849 85.9809 136.701C85.9809 136.566 85.9273 136.444 85.8469 136.444C85.7799 136.444 85.7129 136.606 85.7129 136.795Z" fill="#020202"/>
<path d="M117.534 137.807C117.48 137.888 117.467 137.969 117.507 138.009C117.534 138.05 117.601 137.982 117.641 137.861C117.735 137.631 117.655 137.591 117.534 137.807Z" fill="#020202"/>
<path d="M118.74 138.468C118.78 138.536 118.847 138.603 118.887 138.603C118.914 138.603 118.941 138.536 118.941 138.468C118.941 138.387 118.874 138.333 118.793 138.333C118.726 138.333 118.699 138.387 118.74 138.468Z" fill="#020202"/>
<path d="M84.7754 141.841C84.7754 141.908 84.8424 141.976 84.9228 141.976C84.9898 141.976 85.0166 141.908 84.9764 141.841C84.9362 141.76 84.8692 141.706 84.829 141.706C84.8022 141.706 84.7754 141.76 84.7754 141.841Z" fill="#020202"/>
<path d="M89.7457 143.271C89.5715 143.46 89.4643 143.635 89.5045 143.676C89.5447 143.716 89.6921 143.608 89.8395 143.446C90.0137 143.271 90.2012 143.19 90.3352 143.244C90.4692 143.298 90.5362 143.271 90.5094 143.163C90.4156 142.893 90.0539 142.947 89.7457 143.271Z" fill="#020202"/>
<path d="M90.1344 143.73C90.054 143.878 89.8933 143.999 89.7861 143.999C89.6789 143.999 89.6119 144.053 89.6655 144.121C89.7057 144.202 89.4645 144.566 89.1296 144.944C88.7946 145.321 88.3391 145.956 88.1113 146.333C87.5754 147.264 87.428 147.507 87.1332 147.952C86.8518 148.397 85.981 150.165 85.981 150.313C85.981 150.367 86.2757 149.854 86.6241 149.193C87.4548 147.628 88.3659 146.239 89.4913 144.822C90.322 143.784 90.523 143.46 90.3354 143.46C90.3086 143.46 90.2148 143.581 90.1344 143.73Z" fill="#020202"/>
<path d="M89.1296 143.998C89.0894 144.08 89.143 144.094 89.2501 144.053C89.4913 143.958 89.5315 143.862 89.3439 143.862C89.2635 143.862 89.1698 143.917 89.1296 143.998Z" fill="#020202"/>
<path d="M101.55 144.539C100.907 145.2 99.8082 147.035 99.969 147.197C100.009 147.251 100.049 147.21 100.049 147.129C100.049 147.048 100.532 146.333 101.121 145.537C101.711 144.755 102.22 144.053 102.274 143.986C102.434 143.716 102.193 143.905 101.55 144.539Z" fill="#020202"/>
<path d="M119.061 144.229C118.887 144.444 118.901 144.458 119.115 144.282C119.236 144.188 119.343 144.08 119.343 144.053C119.343 143.945 119.236 144.013 119.061 144.229Z" fill="#020202"/>
<path d="M88.8078 144.485C88.8078 144.633 88.848 144.674 88.8882 144.566C88.9284 144.472 88.915 144.35 88.8748 144.31C88.8346 144.256 88.7944 144.337 88.8078 144.485Z" fill="#020202"/>
<path d="M120.415 144.417C120.415 144.485 120.482 144.512 120.549 144.471C120.629 144.431 120.683 144.363 120.683 144.323C120.683 144.296 120.629 144.269 120.549 144.269C120.482 144.269 120.415 144.336 120.415 144.417Z" fill="#020202"/>
<path d="M147.76 145.564C147.238 146.131 146.166 147.574 145.362 148.775C143.821 151.122 143.808 151.136 143.192 152.188C142.749 152.971 142.615 153.578 143.031 153.025C143.299 152.633 143.513 152.296 143.808 151.77C143.928 151.554 144.143 151.257 144.277 151.109C144.411 150.961 144.558 150.718 144.612 150.583C144.652 150.448 144.746 150.34 144.813 150.34C144.88 150.34 144.933 150.273 144.933 150.178C144.933 149.976 145.751 148.681 145.965 148.546C146.059 148.492 146.139 148.37 146.139 148.276C146.153 148.087 146.568 147.507 147.68 146.158C148.712 144.903 148.872 144.687 148.792 144.593C148.752 144.566 148.296 144.998 147.76 145.564Z" fill="#020202"/>
<path d="M120.147 144.876C120.053 144.997 119.999 145.105 120.026 145.146C120.066 145.173 120.16 145.078 120.254 144.943C120.441 144.62 120.388 144.593 120.147 144.876Z" fill="#020202"/>
<path d="M87.8972 145.524C87.656 145.915 87.3345 146.441 87.1737 146.697C86.6378 147.534 87.1335 146.927 87.8436 145.848C88.2188 145.281 88.4867 144.809 88.4331 144.809C88.3795 144.809 88.125 145.133 87.8972 145.524Z" fill="#020202"/>
<path d="M58.5413 146.05C58.2465 147.399 58.0858 149.058 58.1796 150.03C58.3537 151.864 58.4475 151.676 58.4743 149.49C58.4877 148.289 58.5547 146.886 58.6485 146.374C58.8227 145.267 58.7557 145.065 58.5413 146.05Z" fill="#020202"/>
<path d="M105.395 145.942C105.127 146.131 104.605 146.684 104.243 147.196C103.104 148.748 103.01 149.126 103.881 148.653C104.779 148.168 106.012 146.481 105.918 145.874C105.878 145.618 105.851 145.632 105.395 145.942Z" fill="#020202"/>
<path d="M148.149 146.225C148.042 146.347 148.042 146.428 148.122 146.428C148.283 146.428 148.471 146.171 148.377 146.077C148.35 146.05 148.243 146.104 148.149 146.225Z" fill="#020202"/>
<path d="M103.935 146.792C103.359 147.453 102.916 148.181 103.091 148.168C103.198 148.168 104.645 146.158 104.538 146.158C104.511 146.158 104.243 146.441 103.935 146.792Z" fill="#020202"/>
<path d="M103.131 146.832C103.051 146.981 103.024 147.102 103.051 147.102C103.091 147.102 103.185 146.981 103.265 146.832C103.345 146.684 103.372 146.562 103.345 146.562C103.305 146.562 103.211 146.684 103.131 146.832Z" fill="#020202"/>
<path d="M147.667 146.859C147.211 147.385 146.662 148.222 145.55 150.083C145.268 150.556 145 150.974 144.947 151.014C144.907 151.055 144.759 151.298 144.639 151.554C144.277 152.309 143.808 153.105 143.701 153.146C143.634 153.173 143.593 153.308 143.593 153.429C143.593 153.564 143.406 153.928 143.178 154.238C142.95 154.562 142.803 154.846 142.83 154.873C142.91 154.954 143.486 154.036 144.866 151.554C145.844 149.8 146.648 148.545 147.868 146.819C148.109 146.468 147.988 146.495 147.667 146.859Z" fill="#020202"/>
<path d="M106.052 147.615C105.033 148.991 105.047 148.964 105.596 148.451C106.065 148.019 106.561 147.277 106.454 147.169C106.427 147.143 106.253 147.345 106.052 147.615Z" fill="#020202"/>
<path d="M86.4902 147.75C86.0882 148.343 84.2393 152.013 84.2393 152.175C84.2393 152.242 84.7484 151.325 85.3513 150.138C85.9676 148.95 86.5706 147.817 86.7045 147.601C86.8385 147.399 86.9189 147.237 86.8787 147.237C86.8519 147.237 86.6643 147.466 86.4902 147.75Z" fill="#020202"/>
<path d="M108.972 147.615C108.919 147.763 108.557 148.37 108.155 148.977C107.753 149.584 107.458 150.07 107.485 150.07C107.512 150.07 107.82 149.692 108.168 149.22C108.785 148.397 109.24 147.534 109.106 147.412C109.079 147.385 109.012 147.466 108.972 147.615Z" fill="#020202"/>
<path d="M137.966 147.52C137.966 147.858 136.399 150.853 135.501 152.229C134.536 153.713 133.692 154.697 133.076 155.075C132.862 155.224 132.741 155.332 132.835 155.332C133.317 155.332 134.818 153.767 135.836 152.161C136.774 150.704 138.221 147.588 138.047 147.413C138.007 147.372 137.966 147.413 137.966 147.52Z" fill="#020202"/>
<path d="M148.069 147.48C147.988 147.534 147.721 147.911 147.466 148.316C146.85 149.287 146.729 149.503 146.903 149.328C147.051 149.18 148.297 147.372 148.243 147.372C148.23 147.372 148.149 147.426 148.069 147.48Z" fill="#020202"/>
<path d="M113.715 147.911C113.635 148.06 113.608 148.181 113.635 148.181C113.675 148.181 113.769 148.06 113.849 147.911C113.93 147.763 113.957 147.642 113.93 147.642C113.89 147.642 113.796 147.763 113.715 147.911Z" fill="#020202"/>
<path d="M108.088 148.316C108.008 148.465 107.981 148.586 108.008 148.586C108.048 148.586 108.142 148.465 108.222 148.316C108.302 148.168 108.329 148.046 108.302 148.046C108.262 148.046 108.168 148.168 108.088 148.316Z" fill="#020202"/>
<path d="M118.432 148.451C118.432 148.707 118.458 148.815 118.499 148.68C118.525 148.559 118.525 148.343 118.499 148.208C118.458 148.087 118.432 148.195 118.432 148.451Z" fill="#020202"/>
<path d="M126.216 148.518C126.042 148.775 125.988 148.95 126.082 148.91C126.23 148.856 126.618 148.181 126.538 148.1C126.524 148.087 126.377 148.276 126.216 148.518Z" fill="#020202"/>
<path d="M157.394 150.016C156.791 151.014 156.322 151.864 156.362 151.905C156.389 151.945 156.751 151.405 157.153 150.717C158.345 148.694 158.627 148.181 158.56 148.181C158.519 148.181 157.997 149.004 157.394 150.016Z" fill="#020202"/>
<path d="M61.2077 148.667C61.2077 148.816 61.2479 148.856 61.2881 148.748C61.3283 148.654 61.3149 148.532 61.2747 148.492C61.2345 148.438 61.1943 148.519 61.2077 148.667Z" fill="#020202"/>
<path d="M113.046 148.991C112.965 149.139 112.938 149.261 112.965 149.261C113.005 149.261 113.099 149.139 113.179 148.991C113.26 148.843 113.287 148.721 113.26 148.721C113.22 148.721 113.126 148.843 113.046 148.991Z" fill="#020202"/>
<path d="M137.497 149.773C136.935 151.001 136.935 151.109 137.497 150.03C137.765 149.517 137.966 149.058 137.939 148.991C137.913 148.937 137.725 149.288 137.497 149.773Z" fill="#020202"/>
<path d="M61.0869 150.61C61.0869 151.46 61.1271 152.31 61.1807 152.498C61.2343 152.687 61.2611 152.04 61.2343 151.082C61.1539 148.856 61.0869 148.586 61.0869 150.61Z" fill="#020202"/>
<path d="M118.298 149.463C118.298 149.679 118.325 149.76 118.365 149.625C118.392 149.504 118.392 149.315 118.365 149.22C118.325 149.139 118.298 149.234 118.298 149.463Z" fill="#020202"/>
<path d="M146.474 149.935C146.354 150.151 146.3 150.34 146.327 150.34C146.367 150.34 146.488 150.151 146.608 149.935C146.729 149.706 146.783 149.53 146.756 149.53C146.716 149.53 146.595 149.706 146.474 149.935Z" fill="#020202"/>
<path d="M118.07 151.217C118.016 151.864 118.003 152.417 118.043 152.444C118.07 152.485 118.15 151.986 118.204 151.352C118.257 150.704 118.271 150.151 118.23 150.124C118.204 150.084 118.123 150.583 118.07 151.217Z" fill="#020202"/>
<path d="M157.89 150.164C157.836 150.205 157.796 150.313 157.796 150.394C157.796 150.475 157.863 150.461 157.957 150.367C158.037 150.286 158.077 150.178 158.05 150.137C158.01 150.097 157.93 150.11 157.89 150.164Z" fill="#020202"/>
<path d="M97.785 150.34C97.7716 150.448 97.4367 151.122 97.0347 151.824C96.6328 152.525 96.4318 152.944 96.606 152.728C97.0749 152.175 97.9324 150.488 97.8654 150.299C97.8118 150.191 97.785 150.205 97.785 150.34Z" fill="#020202"/>
<path d="M145.952 150.839C145.845 151.055 145.63 151.433 145.483 151.689C145.335 151.945 145.081 152.431 144.92 152.768C144.759 153.105 144.478 153.672 144.304 154.05C144.116 154.414 144.022 154.657 144.089 154.589C144.264 154.4 146.287 150.475 146.206 150.475C146.18 150.475 146.059 150.637 145.952 150.839Z" fill="#020202"/>
<path d="M59.466 151.095C59.466 151.244 59.5062 151.284 59.5464 151.176C59.5866 151.082 59.5732 150.96 59.533 150.92C59.4928 150.866 59.4526 150.947 59.466 151.095Z" fill="#020202"/>
<path d="M60.5513 151.284C60.5513 151.54 60.5781 151.648 60.6183 151.513C60.6451 151.392 60.6451 151.176 60.6183 151.041C60.5781 150.92 60.5513 151.028 60.5513 151.284Z" fill="#020202"/>
<path d="M84.9897 152.444C84.6413 153.227 84.3868 153.901 84.4136 153.928C84.4404 153.955 84.7351 153.335 85.0835 152.539C85.4318 151.743 85.6864 151.082 85.6596 151.055C85.6328 151.028 85.3246 151.648 84.9897 152.444Z" fill="#020202"/>
<path d="M59.6133 151.824C59.6133 152.012 59.6401 152.08 59.6803 151.985C59.7071 151.905 59.7071 151.743 59.6803 151.648C59.6401 151.567 59.6133 151.635 59.6133 151.824Z" fill="#020202"/>
<path d="M97.6776 151.716C97.4096 152.148 97.1149 152.822 97.1551 152.876C97.1953 152.903 97.3694 152.62 97.557 152.242C97.8786 151.622 97.9456 151.298 97.6776 151.716Z" fill="#020202"/>
<path d="M60.6851 152.161C60.6851 152.377 60.7119 152.458 60.752 152.323C60.7788 152.201 60.7788 152.012 60.752 151.918C60.7119 151.837 60.6851 151.931 60.6851 152.161Z" fill="#020202"/>
<path d="M156.054 152.269C155.934 152.363 155.639 152.795 155.398 153.24C154.902 154.144 154.969 154.104 155.679 153.105C156.403 152.067 156.456 151.945 156.054 152.269Z" fill="#020202"/>
<path d="M110.299 153.132C110.084 153.416 109.736 153.861 109.508 154.117C109.173 154.495 109.213 154.481 109.696 154.023C110.232 153.51 110.888 152.633 110.727 152.633C110.687 152.633 110.5 152.862 110.299 153.132Z" fill="#020202"/>
<path d="M136.184 153.281C135.997 153.685 135.997 153.726 136.171 153.51C136.479 153.119 136.653 152.768 136.533 152.768C136.479 152.768 136.318 152.997 136.184 153.281Z" fill="#020202"/>
<path d="M135.729 153.065C135.528 153.335 135.394 153.578 135.461 153.578C135.501 153.578 135.622 153.429 135.742 153.24C135.97 152.89 135.957 152.768 135.729 153.065Z" fill="#020202"/>
<path d="M96.7129 153.443C96.5521 153.672 96.4315 153.928 96.4583 153.996C96.4851 154.077 96.6459 153.888 96.8067 153.591C97.1818 152.93 97.1416 152.876 96.7129 153.443Z" fill="#020202"/>
<path d="M117.869 153.308C117.869 153.564 117.909 153.591 118.03 153.47C118.151 153.348 118.151 153.267 118.03 153.146C117.909 153.025 117.869 153.052 117.869 153.308Z" fill="#020202"/>
<path d="M95.6414 154.131C95.3198 154.657 95.092 155.102 95.1188 155.129C95.1456 155.156 95.427 154.765 95.7486 154.239C96.0701 153.726 96.3113 153.267 96.2845 153.24C96.2443 153.213 95.9629 153.618 95.6414 154.131Z" fill="#020202"/>
<path d="M142.455 153.591C142.401 153.672 142.388 153.753 142.428 153.793C142.455 153.834 142.522 153.766 142.562 153.645C142.656 153.416 142.576 153.375 142.455 153.591Z" fill="#020202"/>
<path d="M117.896 154.522C117.896 154.778 117.922 154.886 117.962 154.751C117.989 154.63 117.989 154.414 117.962 154.279C117.922 154.158 117.896 154.265 117.896 154.522Z" fill="#020202"/>
<path d="M154.714 154.32C154.621 154.441 154.567 154.549 154.594 154.59C154.634 154.617 154.728 154.522 154.822 154.387C155.009 154.063 154.956 154.037 154.714 154.32Z" fill="#020202"/>
<path d="M96.0965 154.657C95.9759 154.873 95.9223 155.062 95.9491 155.062C95.9893 155.062 96.1099 154.873 96.2305 154.657C96.3511 154.427 96.4047 154.252 96.3779 154.252C96.3377 154.252 96.2171 154.427 96.0965 154.657Z" fill="#020202"/>
<path d="M135.005 155.021C134.831 155.237 134.844 155.25 135.059 155.075C135.273 154.9 135.34 154.792 135.233 154.792C135.206 154.792 135.099 154.9 135.005 155.021Z" fill="#020202"/>
<path d="M143.393 155.628C142.763 156.667 142.682 156.842 143.044 156.411C143.339 156.046 144.049 154.792 143.955 154.792C143.929 154.792 143.674 155.169 143.393 155.628Z" fill="#020202"/>
<path d="M95.266 155.979C94.9578 156.505 94.9176 156.626 95.132 156.383C95.5473 155.871 95.9359 155.196 95.8019 155.196C95.7483 155.21 95.4937 155.547 95.266 155.979Z" fill="#020202"/>
<path d="M154.835 156.033C154.071 157.112 153.977 157.287 154.165 157.166C154.366 157.031 155.558 155.331 155.491 155.264C155.465 155.223 155.17 155.574 154.835 156.033Z" fill="#020202"/>
<path d="M154.446 156.006C154.286 156.222 154.192 156.411 154.232 156.411C154.259 156.411 154.42 156.222 154.58 156.006C154.741 155.777 154.835 155.601 154.795 155.601C154.768 155.601 154.607 155.777 154.446 156.006Z" fill="#020202"/>
<path d="M95.2258 156.707C94.9847 157.099 94.8909 157.342 95.0115 157.234C95.2928 157.004 95.8154 156.141 95.7216 156.06C95.6948 156.019 95.467 156.316 95.2258 156.707Z" fill="#020202"/>
<path d="M119.436 157.072C119.383 157.396 119.369 157.692 119.41 157.733C119.557 157.881 119.624 157.625 119.584 157.072L119.544 156.478L119.436 157.072Z" fill="#020202"/>
<path d="M132.982 157.314C133.076 157.355 133.196 157.341 133.237 157.301C133.29 157.26 133.21 157.219 133.062 157.233C132.915 157.233 132.875 157.273 132.982 157.314Z" fill="#020202"/>
<path d="M65.2139 157.679C65.2139 157.8 65.2809 157.895 65.3478 157.895C65.4282 157.895 65.4818 157.841 65.4818 157.773C65.4818 157.692 65.4282 157.598 65.3478 157.557C65.2809 157.517 65.2139 157.571 65.2139 157.679Z" fill="#020202"/>
<path d="M120.16 157.706C120.16 157.854 120.2 157.895 120.24 157.787C120.28 157.692 120.267 157.571 120.227 157.53C120.187 157.476 120.146 157.557 120.16 157.706Z" fill="#020202"/>
<path d="M142.522 157.773C142.522 157.841 142.589 157.868 142.656 157.827C142.736 157.787 142.79 157.719 142.79 157.679C142.79 157.652 142.736 157.625 142.656 157.625C142.589 157.625 142.522 157.692 142.522 157.773Z" fill="#020202"/>
<path d="M119.329 157.989C119.249 158.515 119.062 159.136 118.847 159.54C118.753 159.756 118.727 159.918 118.794 159.918C118.861 159.918 119.008 159.689 119.115 159.405C119.356 158.798 119.544 157.894 119.423 157.894C119.383 157.894 119.329 157.935 119.329 157.989Z" fill="#020202"/>
<path d="M120.709 158.434C120.709 158.623 120.736 158.691 120.776 158.596C120.803 158.515 120.803 158.353 120.776 158.259C120.736 158.178 120.709 158.246 120.709 158.434Z" fill="#020202"/>
<path d="M119.905 158.974C119.905 159.163 119.932 159.23 119.972 159.136C119.999 159.055 119.999 158.893 119.972 158.799C119.932 158.718 119.905 158.785 119.905 158.974Z" fill="#020202"/>
<path d="M120.562 159.19C120.562 159.338 120.602 159.378 120.643 159.271C120.683 159.176 120.669 159.055 120.629 159.014C120.589 158.96 120.549 159.041 120.562 159.19Z" fill="#020202"/>
<path d="M120.428 159.729C120.428 159.878 120.468 159.918 120.508 159.81C120.549 159.716 120.535 159.594 120.495 159.554C120.455 159.5 120.415 159.581 120.428 159.729Z" fill="#020202"/>
<path d="M132.272 136.849C132.218 137.011 132.205 137.173 132.245 137.213C132.285 137.24 132.352 137.146 132.406 136.984C132.459 136.822 132.473 136.66 132.433 136.62C132.392 136.593 132.325 136.687 132.272 136.849Z" fill="#020202"/>
<path d="M124.515 136.12C124.461 136.242 124.461 136.377 124.501 136.417C124.528 136.458 124.595 136.377 124.649 136.255C124.702 136.134 124.702 135.999 124.662 135.959C124.635 135.918 124.568 135.999 124.515 136.12Z" fill="#020202"/>
<path d="M55.4332 167.783C54.5221 168.093 53.812 168.768 53.2894 169.82C52.7803 170.832 52.7669 171.534 53.2224 171.992C54.1871 172.964 55.8753 171.601 56.438 169.402C56.639 168.606 56.639 168.525 56.4112 168.053L56.1701 167.527L55.4332 167.783Z" fill="#020202"/>
<path d="M123.697 167.864C122.639 168.35 121.486 170.063 121.486 171.156C121.486 172.114 122.183 171.911 123.389 170.603C124.246 169.672 124.581 169.024 124.608 168.256C124.635 167.567 124.474 167.5 123.697 167.864Z" fill="#020202"/>
<path d="M143.928 167.864C142.87 168.35 141.718 170.063 141.718 171.156C141.718 172.114 142.414 171.911 143.62 170.603C144.478 169.672 144.813 169.024 144.84 168.256C144.866 167.567 144.706 167.5 143.928 167.864Z" fill="#020202"/>
<path d="M84.1587 168.269C83.7702 168.498 82.9931 169.375 83.0869 169.456C83.2343 169.605 84.6009 169.146 84.9492 168.822C85.311 168.498 85.3378 168.417 85.1904 168.228C84.9492 167.945 84.6679 167.959 84.1587 168.269Z" fill="#020202"/>
<path d="M103.586 168.269C103.198 168.498 102.421 169.375 102.515 169.456C102.662 169.605 104.029 169.146 104.377 168.822C104.739 168.498 104.766 168.417 104.618 168.228C104.377 167.945 104.096 167.959 103.586 168.269Z" fill="#020202"/>
<path d="M110.982 186.036C110.942 186.158 110.902 186.428 110.902 186.643C110.902 186.967 110.955 187.035 111.237 187.035C111.505 187.035 111.572 186.967 111.572 186.684C111.572 186.036 111.156 185.578 110.982 186.036Z" fill="#020202"/>
<path d="M131.294 187.21C131.066 187.453 130.986 187.668 131.026 187.992C131.12 188.95 131.723 188.397 131.642 187.426L131.602 186.872L131.294 187.21Z" fill="#020202"/>
<defs>
<linearGradient id="paint0_linear_1_4573" x1="212.46" y1="107.595" x2="6.54297" y2="107.595" gradientUnits="userSpaceOnUse">
<stop stop-color="#494949"/>
<stop offset="1" stop-color="#494949" stop-opacity="0"/>
</linearGradient>
</defs>
</svg>
