<svg width="20" height="20" viewBox="0 0 20 20" fill="none" xmlns="http://www.w3.org/2000/svg">
<path d="M14.9266 13.0495C14.6693 13.4077 14.3814 13.7476 14.064 14.0657C13.7453 14.385 13.4047 14.6743 13.0458 14.9328L17.0817 18.9606L17.0819 18.9608C17.332 19.2115 17.6653 19.3499 18.0207 19.3499C18.3759 19.3499 18.7091 19.2116 18.9605 18.9599L14.9266 13.0495ZM14.9266 13.0495L18.9605 17.0754C18.9606 17.0755 18.9606 17.0756 18.9607 17.0756C19.2119 17.3275 19.35 17.6616 19.35 18.0177C19.35 18.3739 19.2118 18.7079 18.9606 18.9598L14.9266 13.0495Z" fill="#E1643C" stroke="#1C1C1C" stroke-width="0.3"/>
<path d="M2.84904 2.8535C4.36356 1.33587 6.37747 0.5 8.51952 0.5C10.6616 0.5 12.6755 1.33587 14.1902 2.8535C15.7048 4.37114 16.5391 6.38884 16.5391 8.53523C16.5391 10.6815 15.705 12.6992 14.1902 14.2168C12.6755 15.7345 10.6616 16.5703 8.51952 16.5703C6.37747 16.5703 4.36356 15.7346 2.84904 14.2168C1.33437 12.6992 0.50013 10.6815 0.50013 8.53523C0.50013 6.38899 1.33437 4.37114 2.84904 2.8535ZM4.19831 12.8649C5.38972 14.0585 6.9547 14.6554 8.51952 14.6554C10.0845 14.6554 11.6495 14.0585 12.8409 12.8649C15.2236 10.4774 15.2236 6.59291 12.8409 4.20556C10.4581 1.81822 6.58114 1.81807 4.19831 4.20556C1.81563 6.59291 1.81563 10.4774 4.19831 12.8649Z" fill="#E1643C"/>
</svg>
