<svg width="23" height="22" viewBox="0 0 23 22" fill="none" xmlns="http://www.w3.org/2000/svg">
<path fill-rule="evenodd" clip-rule="evenodd" d="M8.42143 2.97917C8.67809 2.43833 9.23176 2.0625 9.87159 2.0625H13.5383C14.1781 2.0625 14.7308 2.43833 14.9884 2.97917C15.6145 2.98467 16.1031 3.01308 16.5394 3.18358C17.0603 3.38733 17.5133 3.73359 17.8466 4.18275C18.183 4.63558 18.3416 5.21583 18.5579 6.01425L19.2381 8.50942L19.4948 9.28033L19.5168 9.30783C20.3427 10.3657 19.9494 11.9387 19.1629 15.0837C18.6624 17.0848 18.4131 18.0849 17.6669 18.6679C16.9208 19.25 15.8895 19.25 13.827 19.25H9.58284C7.52034 19.25 6.48909 19.25 5.74292 18.6679C4.99676 18.0849 4.74651 17.0848 4.24692 15.0837C3.46043 11.9387 3.06717 10.3657 3.89309 9.30783L3.91509 9.28033L4.17176 8.50942L4.85193 6.01425C5.06918 5.21583 5.22776 4.63467 5.56326 4.18183C5.89668 3.73302 6.34966 3.38708 6.87042 3.18358C7.30676 3.01308 7.79443 2.98375 8.42143 2.97917ZM8.42326 4.356C7.81642 4.36242 7.57259 4.38533 7.37092 4.46417C7.09039 4.57387 6.84642 4.76035 6.66692 5.00225C6.50559 5.2195 6.41026 5.52292 6.14442 6.501L5.62192 8.41592C6.55692 8.25 7.83476 8.25 9.58192 8.25H13.827C15.5751 8.25 16.852 8.25 17.787 8.415L17.2654 6.50008C16.9996 5.522 16.9043 5.21858 16.7429 5.00133C16.5634 4.75943 16.3195 4.57296 16.0389 4.46325C15.8373 4.38442 15.5934 4.3615 14.9866 4.35508C14.8564 4.62903 14.6513 4.86046 14.3949 5.02254C14.1386 5.18463 13.8415 5.27072 13.5383 5.27083H9.87159C9.5684 5.2708 9.27142 5.18485 9.01509 5.02293C8.75875 4.86102 8.55354 4.62977 8.42326 4.356Z" fill="#E1643C"/>
<mask id="mask0_1_4685" style="mask-type:alpha" maskUnits="userSpaceOnUse" x="3" y="2" width="17" height="18">
<path fill-rule="evenodd" clip-rule="evenodd" d="M8.42143 2.97917C8.67809 2.43833 9.23176 2.0625 9.87159 2.0625H13.5383C14.1781 2.0625 14.7308 2.43833 14.9884 2.97917C15.6145 2.98467 16.1031 3.01308 16.5394 3.18358C17.0603 3.38733 17.5133 3.73359 17.8466 4.18275C18.183 4.63558 18.3416 5.21583 18.5579 6.01425L19.2381 8.50942L19.4948 9.28033L19.5168 9.30783C20.3427 10.3657 19.9494 11.9387 19.1629 15.0837C18.6624 17.0848 18.4131 18.0849 17.6669 18.6679C16.9208 19.25 15.8895 19.25 13.827 19.25H9.58284C7.52034 19.25 6.48909 19.25 5.74292 18.6679C4.99676 18.0849 4.74651 17.0848 4.24692 15.0837C3.46043 11.9387 3.06717 10.3657 3.89309 9.30783L3.91509 9.28033L4.17176 8.50942L4.85193 6.01425C5.06918 5.21583 5.22776 4.63467 5.56326 4.18183C5.89668 3.73302 6.34966 3.38708 6.87042 3.18358C7.30676 3.01308 7.79443 2.98375 8.42143 2.97917ZM8.42326 4.356C7.81642 4.36242 7.57259 4.38533 7.37092 4.46417C7.09039 4.57387 6.84642 4.76035 6.66692 5.00225C6.50559 5.2195 6.41026 5.52292 6.14442 6.501L5.62192 8.41592C6.55692 8.25 7.83476 8.25 9.58192 8.25H13.827C15.5751 8.25 16.852 8.25 17.787 8.415L17.2654 6.50008C16.9996 5.522 16.9043 5.21858 16.7429 5.00133C16.5634 4.75943 16.3195 4.57296 16.0389 4.46325C15.8373 4.38442 15.5934 4.3615 14.9866 4.35508C14.8564 4.62903 14.6513 4.86046 14.3949 5.02254C14.1386 5.18463 13.8415 5.27072 13.5383 5.27083H9.87159C9.5684 5.2708 9.27142 5.18485 9.01509 5.02293C8.75875 4.86102 8.55354 4.62977 8.42326 4.356Z" fill="#E1643C"/>
</mask>
<g mask="url(#mask0_1_4685)">
<rect x="7.70508" y="2" width="8" height="4" fill="#FFC1AE"/>
</g>
</svg>
