<svg width="36" height="28" viewBox="0 0 36 28" fill="none" xmlns="http://www.w3.org/2000/svg">
<path d="M32.3434 21.7787H31.0884C30.876 19.9426 29.7669 18.3286 28.1246 17.4662C26.4824 16.6039 24.5181 16.6039 22.8758 17.4662C21.2335 18.3286 20.1244 19.9426 19.9121 21.7787H18.6571C18.8635 19.4896 20.2112 17.4565 22.2444 16.3672C24.2774 15.278 26.7244 15.278 28.7576 16.3672C30.7908 17.4565 32.1384 19.4896 32.3446 21.7787H32.3434ZM28.5626 21.7787C28.3698 20.8338 27.7479 20.0311 26.8785 19.6059C26.0094 19.1807 24.9909 19.1807 24.1218 19.6059C23.2524 20.0311 22.6304 20.8338 22.4376 21.7787H21.1751C21.376 20.3858 22.2415 19.176 23.4979 18.5313C24.7541 17.8864 26.2463 17.8864 27.5024 18.5313C28.7588 19.176 29.6243 20.3858 29.8252 21.7787H28.5626ZM27.2607 21.7787H23.7401C23.9108 21.2907 24.2783 20.8957 24.754 20.6888C25.2297 20.4822 25.7704 20.4822 26.2462 20.6888C26.7219 20.8957 27.0894 21.2907 27.2601 21.7787H27.2607ZM21.2733 11.5757L22.6701 11.0158C22.8241 10.9544 22.9474 10.8347 23.0127 10.683L27.4265 0.376942C27.5621 0.0619862 27.9282 -0.0843818 28.2451 0.0497644C28.3969 0.113088 28.5169 0.234185 28.5783 0.386384C28.6416 0.538583 28.6416 0.709951 28.5783 0.862149L24.1626 11.1689C24.0976 11.3211 24.0959 11.4928 24.1584 11.6461L24.724 13.0429L24.1252 14.4371C23.2901 14.5776 22.4826 14.8487 21.7326 15.2403C21.6933 14.1885 21.4463 13.1548 21.0058 12.198L21.2733 11.5757ZM15.5001 4.98106H16.7501V6.22533C16.7501 6.55528 16.6184 6.87191 16.3841 7.1052C16.1497 7.3385 15.8316 7.4696 15.5001 7.4696H14.2501V6.22533C14.2501 5.89538 14.3818 5.57875 14.6162 5.34546C14.8506 5.11216 15.1687 4.98106 15.5001 4.98106ZM10.5001 4.98106H11.7501C12.0816 4.98106 12.3997 5.11216 12.6341 5.34546C12.8684 5.57875 13.0001 5.89538 13.0001 6.22533V7.4696H11.7501C11.4187 7.4696 11.1006 7.3385 10.8662 7.1052C10.6318 6.87191 10.5001 6.55528 10.5001 6.22533V4.98106ZM13.6251 8.71386C15.448 8.71609 17.1951 9.43767 18.4842 10.7205C19.773 12.0037 20.4979 13.7429 20.5001 15.5573C20.5001 15.7354 20.4921 15.8976 20.4809 16.055C19.3907 16.9077 18.537 18.0228 18.0002 19.2951C16.9586 16.8146 14.7505 15.0091 12.104 14.473C12.4131 14.0409 12.8927 13.7606 13.4223 13.7023C13.9519 13.644 14.4815 13.8131 14.878 14.1672C15.2747 14.5214 15.501 15.0269 15.5002 15.5573H16.7502C16.7491 14.5963 16.3018 13.6898 15.5384 13.1016C14.775 12.5133 13.7814 12.3092 12.8464 12.5486C11.9117 12.788 11.1402 13.4443 10.7571 14.3261C10.6709 14.3231 10.5869 14.3131 10.5001 14.3131C10.136 14.3159 9.77241 14.3431 9.41198 14.3945C9.79479 13.033 10.818 11.9412 12.1558 11.4662C13.4937 10.9913 14.98 11.1927 16.1419 12.0059C17.3038 12.8191 17.9965 14.1433 18.0002 15.5573C18.0005 15.7403 17.9896 15.9231 17.967 16.1047L19.2089 16.2541C19.2368 16.0228 19.2508 15.79 19.2502 15.5573C19.2513 13.6617 18.2884 11.8945 16.6916 10.8619C15.0949 9.82898 13.0814 9.6712 11.342 10.4425C9.60235 11.2135 8.37328 12.8091 8.07635 14.6813C7.62379 14.8238 7.18464 15.0057 6.76385 15.2251C6.84951 13.4706 7.60957 11.8162 8.88692 10.6041C10.164 9.39206 11.8607 8.71525 13.6252 8.71383L13.6251 8.71386ZM10.5001 15.5573C12.2144 15.5596 13.8659 16.1986 15.1316 17.3493C16.3975 18.5 17.186 20.0794 17.3434 21.7787H16.0884C15.876 19.9426 14.7669 18.3286 13.1246 17.4662C11.4824 16.6039 9.51807 16.6039 7.87579 17.4662C6.2335 18.3286 5.12436 19.9426 4.91207 21.7787H3.65707C3.81444 20.0795 4.60293 18.5 5.86886 17.3493C7.1345 16.1986 8.786 15.5595 10.5003 15.5573H10.5001ZM13.5626 21.7787C13.3698 20.8338 12.7479 20.0311 11.8785 19.6059C11.0094 19.1807 9.99093 19.1807 9.12179 19.6059C8.25236 20.0311 7.63043 20.8338 7.43764 21.7787H6.17507C6.37596 20.3858 7.2415 19.176 8.49793 18.5313C9.75407 17.8864 11.2463 17.8864 12.5024 18.5313C13.7588 19.176 14.6243 20.3858 14.8252 21.7787H13.5626ZM12.2607 21.7787H8.74007C8.91083 21.2907 9.2783 20.8957 9.754 20.6888C10.2297 20.4822 10.7704 20.4822 11.2462 20.6888C11.7219 20.8957 12.0894 21.2907 12.2601 21.7787H12.2607ZM25.5 28H10.5C9.77986 27.9992 9.082 27.7511 8.524 27.2979C7.96624 26.8446 7.58257 26.2136 7.4375 25.5115H28.5625C28.4174 26.2136 28.0338 26.8446 27.476 27.2979C26.918 27.7511 26.2201 27.9992 25.5 28ZM34.875 24.2672H1.125C0.779857 24.2672 0.5 23.9886 0.5 23.6451C0.5 23.3015 0.779857 23.0229 1.125 23.0229H34.875C35.2201 23.0229 35.5 23.3015 35.5 23.6451C35.5 23.9886 35.2201 24.2672 34.875 24.2672Z" fill="white"/>
</svg>
