<svg width="13" height="14" viewBox="0 0 13 14" fill="none" xmlns="http://www.w3.org/2000/svg">
<g id="ic:round-arrow-back-ios" clip-path="url(#clip0_1_6503)">
<path id="Vector" d="M0.859563 12.256C0.927297 12.3239 1.00776 12.3778 1.09635 12.4145C1.18493 12.4513 1.2799 12.4702 1.37581 12.4702C1.47172 12.4702 1.56669 12.4513 1.65528 12.4145C1.74387 12.3778 1.82433 12.3239 1.89206 12.256L6.73956 7.40849C6.79364 7.35453 6.83654 7.29043 6.86582 7.21986C6.89509 7.14929 6.91016 7.07364 6.91016 6.99724C6.91016 6.92085 6.89509 6.8452 6.86582 6.77463C6.83654 6.70406 6.79364 6.63996 6.73956 6.58599L1.89206 1.73849C1.60623 1.45266 1.1454 1.45266 0.859562 1.73849C0.573729 2.02433 0.573729 2.48516 0.859563 2.77099L5.0829 7.00016L0.853731 11.2293C0.573731 11.5093 0.57373 11.976 0.859563 12.256Z" fill="#373737"/>
<path id="Vector_2" d="M11.6951 12.256C11.6274 12.3239 11.5469 12.3778 11.4583 12.4145C11.3698 12.4513 11.2748 12.4702 11.1789 12.4702C11.083 12.4702 10.988 12.4513 10.8994 12.4145C10.8108 12.3778 10.7304 12.3239 10.6626 12.256L5.81512 7.40849C5.76105 7.35453 5.71814 7.29043 5.68887 7.21986C5.6596 7.14929 5.64453 7.07364 5.64453 6.99724C5.64453 6.92085 5.6596 6.8452 5.68887 6.77463C5.71814 6.70406 5.76105 6.63996 5.81512 6.58599L10.6626 1.73849C10.9485 1.45266 11.4093 1.45266 11.6951 1.73849C11.981 2.02433 11.981 2.48516 11.6951 2.77099L7.47179 7.00016L11.701 11.2293C11.981 11.5093 11.981 11.976 11.6951 12.256Z" fill="#373737"/>
</g>
<defs>
<clipPath id="clip0_1_6503">
<rect width="13" height="14" fill="white" transform="matrix(1 8.74228e-08 8.74228e-08 -1 0 14)"/>
</clipPath>
</defs>
</svg>
